<?xml version="1.0" encoding="UTF-8"?>
<svg version="1.0" xmlns="http://www.w3.org/2000/svg" width="242" height="249" viewBox="0 0 2420 2490">
  <defs>
    <!-- EXTREME electric glow - VERY obvious flowing energy -->
    <filter id="electricGlow" x="-200%" y="-200%" width="500%" height="500%">
      <feGaussianBlur in="SourceGraphic" stdDeviation="8" result="blur">
        <animate attributeName="stdDeviation"
                 values="6;18;6;14;6"
                 dur="1s"
                 repeatCount="indefinite"/>
      </feGaussianBlur>
      <feColorMatrix in="blur" type="matrix"
        values="2.5 0 0 0 0
                0 2.5 0 0 0.8
                0 0 3.5 0 1.5
                0 0 0 1.2 0" result="brightGlow"/>
      <feMerge>
        <feMergeNode in="brightGlow"/>
        <feMergeNode in="brightGlow"/>
        <feMergeNode in="brightGlow"/>
        <feMergeNode in="brightGlow"/>
        <feMergeNode in="SourceGraphic"/>
      </feMerge>
    </filter>

    <!-- EXTREME flowing energy - very visible crackling -->
    <filter id="electricCrackle" x="-200%" y="-200%" width="500%" height="500%">
      <feTurbulence type="fractalNoise" baseFrequency="0.06" numOctaves="3" seed="1" result="turbulence">
        <animate attributeName="baseFrequency"
                 values="0.04;0.1;0.04;0.08;0.04"
                 dur="1s"
                 repeatCount="indefinite"/>
      </feTurbulence>
      <feDisplacementMap in="SourceGraphic" in2="turbulence" scale="6" xChannelSelector="R" yChannelSelector="G" result="warped"/>
      <feGaussianBlur in="warped" stdDeviation="0.5" result="smoothWarped"/>
      <feMerge>
        <feMergeNode in="smoothWarped"/>
        <feMergeNode in="SourceGraphic"/>
      </feMerge>
    </filter>
  </defs>

  <g transform="scale(1,-1) translate(0,-2490)">
    <path fill="#5f8bb9" filter="url(#electricGlow) url(#electricCrackle)" d="M1042 2406 c-163 -31 -309 -89 -435 -173 -148 -98 -308 -276 -384
-426 -54 -108 -105 -270 -98 -315 4 -28 3 -32 -5 -17 -7 15 -8 5 -5 -35 3 -34
2 -44 -3 -26 -6 25 -8 -284 -2 -364 1 -23 2 -24 11 -5 7 15 8 12 4 -14 -6 -42
24 -159 36 -139 6 9 9 9 9 1 0 -6 3 -20 6 -30 5 -15 4 -16 -6 -3 -9 12 -10 10
-4 -10 13 -49 73 -169 119 -242 53 -81 223 -261 241 -254 6 2 24 -7 40 -21
l29 -25 -35 22 -35 22 30 -27 c50 -44 243 -133 340 -157 69 -17 121 -22 220
-22 138 -1 260 18 234 36 -10 6 -5 8 16 4 17 -3 37 -2 45 4 8 5 11 10 5 10
-13 0 17 20 30 20 6 0 3 -5 -5 -10 -30 -19 2 -9 53 16 67 34 159 97 177 120 8
11 2 9 -15 -6 l-30 -25 24 27 c13 15 29 24 35 22 7 -3 19 3 27 12 12 15 12 17
0 9 -10 -5 -12 -4 -7 4 4 6 11 9 16 6 11 -7 33 22 26 34 -4 5 -1 13 5 17 8 5
9 3 4 -7 -7 -11 -5 -11 10 1 24 20 117 161 110 168 -5 5 -40 -37 -39 -48 0 -5
-98 -89 -163 -139 -15 -13 -22 -19 -14 -15 9 5 12 3 7 -5 -4 -6 -11 -9 -16 -6
-5 3 -35 -8 -67 -24 -120 -60 -194 -76 -348 -75 -101 0 -158 5 -203 17 -34 10
-67 15 -71 12 -5 -2 -23 0 -41 6 -23 8 -28 14 -19 20 15 9 18 7 -61 34 -171
59 -383 265 -465 450 -30 66 -78 226 -70 233 2 3 14 -17 25 -43 79 -184 248
-336 435 -390 87 -26 248 -17 331 17 71 29 137 72 127 81 -3 4 0 7 8 7 8 0 28
11 44 25 28 23 26 22 -25 -5 -146 -77 -314 -79 -461 -5 -27 14 -54 23 -59 20
-5 -3 -12 0 -16 6 -5 8 -3 9 7 4 17 -10 15 -7 -71 70 l-65 59 60 -64 60 -65
-62 59 c-34 32 -60 64 -57 70 2 6 -6 22 -17 36 -11 14 -17 19 -13 11 5 -9 3
-12 -5 -7 -6 4 -9 11 -6 16 8 13 -27 80 -38 73 -6 -3 -7 -1 -3 5 4 6 -3 42
-15 79 -30 97 -38 290 -15 404 10 46 29 112 42 146 14 35 22 68 18 75 -4 7 -4
10 1 6 4 -4 32 32 62 80 30 48 70 103 90 124 22 22 32 41 28 49 -5 8 -4 10 3
5 7 -4 30 10 54 32 96 88 261 175 388 204 37 9 47 14 34 18 -10 4 76 7 191 7
115 0 201 -4 190 -8 -19 -7 -19 -8 1 -8 40 -2 158 -42 238 -82 43 -21 82 -37
86 -34 5 3 12 0 16 -6 5 -8 3 -9 -7 -4 -26 15 5 -11 61 -50 30 -22 90 -73 133
-114 73 -70 96 -83 61 -33 -8 12 -19 20 -23 17 -5 -2 -16 4 -26 15 -20 22 -7
28 15 8 45 -42 -48 70 -111 134 -132 132 -300 228 -489 278 -109 28 -375 37
-488 16z m116 -3 c-10 -2 -26 -2 -35 0 -10 3 -2 5 17 5 19 0 27 -2 18 -5z
m220 0 c-10 -2 -28 -2 -40 0 -13 2 -5 4 17 4 22 1 32 -1 23 -4z m-305 -10 c-7
-2 -19 -2 -25 0 -7 3 -2 5 12 5 14 0 19 -2 13 -5z m380 0 c-7 -2 -19 -2 -25 0
-7 3 -2 5 12 5 14 0 19 -2 13 -5z m-436 -9 c-3 -3 -12 -4 -19 -1 -8 3 -5 6 6
6 11 1 17 -2 13 -5z m490 0 c-3 -3 -12 -4 -19 -1 -8 3 -5 6 6 6 11 1 17 -2 13
-5z m40 -10 c-3 -3 -12 -4 -19 -1 -8 3 -5 6 6 6 11 1 17 -2 13 -5z m-717 -44
c-8 -5 -19 -10 -25 -10 -5 0 -3 5 5 10 8 5 20 10 25 10 6 0 3 -5 -5 -10z m-41
-14 c-10 -9 -129 -66 -129 -61 0 6 111 64 124 65 5 0 7 -2 5 -4z m961 -16 c22
-11 40 -23 40 -25 0 -5 -79 32 -89 41 -11 10 14 2 49 -16z m-333 -7 c-20 -2
-52 -2 -70 0 -17 2 0 4 38 4 39 0 53 -2 32 -4z m-150 -9 c-3 -3 -12 -4 -19 -1
-8 3 -5 6 6 6 11 1 17 -2 13 -5z m256 -1 c-7 -2 -19 -2 -25 0 -7 3 -2 5 12 5
14 0 19 -2 13 -5z m-356 -19 c-3 -3 -12 -4 -19 -1 -8 3 -5 6 6 6 11 1 17 -2
13 -5z m-517 -18 c0 -2 -18 -15 -40 -30 -22 -14 -40 -24 -40 -22 0 5 71 56 77
56 2 0 3 -2 3 -4z m360 -36 c-8 -5 -19 -10 -25 -10 -5 0 -3 5 5 10 8 5 20 10
25 10 6 0 3 -5 -5 -10z m780 0 c8 -5 11 -10 5 -10 -5 0 -17 5 -25 10 -8 5 -10
10 -5 10 6 0 17 -5 25 -10z m161 -47 c8 -9 -5 -2 -28 17 -24 18 -43 35 -43 37
0 7 56 -35 71 -54z m-1391 23 c0 -2 -8 -10 -17 -17 -16 -13 -17 -12 -4 4 13
16 21 21 21 13z m390 -1 c0 -2 -10 -9 -22 -15 -22 -11 -22 -10 -4 4 21 17 26
19 26 11z m920 -21 c0 -2 -9 0 -20 6 -11 6 -20 13 -20 16 0 2 9 0 20 -6 11 -6
20 -13 20 -16z m-1350 -7 c0 -1 -37 -38 -82 -82 l-83 -80 80 83 c74 76 85 87
85 79z m380 -2 c0 -2 -10 -9 -22 -15 -22 -11 -22 -10 -4 4 21 17 26 19 26 11z
m1160 -92 c0 -8 -9 0 -50 45 l-45 47 48 -45 c26 -24 47 -45 47 -47z m-1210 63
c0 -2 -8 -10 -17 -17 -16 -13 -17 -12 -4 4 13 16 21 21 21 13z m1131 -33 c13
-16 12 -17 -3 -4 -10 7 -18 15 -18 17 0 8 8 3 21 -13z m-1171 4 c0 -2 -15 -16
-32 -33 l-33 -29 29 33 c28 30 36 37 36 29z m1211 -34 c13 -16 12 -17 -3 -4
-10 7 -18 15 -18 17 0 8 8 3 21 -13z m70 -39 c11 -12 16 -24 11 -28 -5 -3 -21
7 -36 23 -19 19 -22 28 -11 28 8 0 24 -10 36 -23z m-1731 -38 c0 -2 -8 -10
-17 -17 -16 -13 -17 -12 -4 4 13 16 21 21 21 13z m340 1 c0 -2 -12 -14 -27
-28 l-28 -24 24 28 c23 25 31 32 31 24z m-370 -41 c0 -2 -8 -10 -17 -17 -16
-13 -17 -12 -4 4 13 16 21 21 21 13z m284 -66 c-15 -22 -29 -40 -31 -40 -5 0
3 15 29 53 30 43 31 32 2 -13z m-344 -20 c-6 -11 -13 -20 -16 -20 -2 0 0 9 6
20 6 11 13 20 16 20 2 0 0 -9 -6 -20z m300 -50 c-6 -11 -13 -20 -16 -20 -2 0
0 9 6 20 6 11 13 20 16 20 2 0 0 -9 -6 -20z m-359 -67 c-12 -20 -14 -14 -5 12
4 9 9 14 11 11 3 -2 0 -13 -6 -23z m300 -50 c-12 -20 -14 -14 -5 12 4 9 9 14
11 11 3 -2 0 -13 -6 -23z m-34 -105 c-3 -8 -6 -5 -6 6 -1 11 2 17 5 13 3 -3 4
-12 1 -19z m-330 -30 c-3 -8 -6 -5 -6 6 -1 11 2 17 5 13 3 -3 4 -12 1 -19z
m320 -10 c-3 -8 -6 -5 -6 6 -1 11 2 17 5 13 3 -3 4 -12 1 -19z m-330 -30 c-3
-8 -6 -5 -6 6 -1 11 2 17 5 13 3 -3 4 -12 1 -19z m320 -30 c-3 -7 -5 -2 -5 12
0 14 2 19 5 13 2 -7 2 -19 0 -25z m-10 -180 c-2 -29 -3 -8 -3 47 0 55 1 79 3
53 2 -26 2 -71 0 -100z m10 -100 c-3 -7 -5 -2 -5 12 0 14 2 19 5 13 2 -7 2
-19 0 -25z m10 -50 c-3 -8 -6 -5 -6 6 -1 11 2 17 5 13 3 -3 4 -12 1 -19z
m-350 -60 c-3 -7 -5 -2 -5 12 0 14 2 19 5 13 2 -7 2 -19 0 -25z m20 -110 c-3
-8 -6 -5 -6 6 -1 11 2 17 5 13 3 -3 4 -12 1 -19z m10 -40 c-3 -8 -6 -5 -6 6
-1 11 2 17 5 13 3 -3 4 -12 1 -19z m73 -193 c0 -5 -5 -3 -10 5 -5 8 -10 20
-10 25 0 6 5 3 10 -5 5 -8 10 -19 10 -25z m606 -33 c-5 -4 -86 36 -86 43 0 3
20 -5 45 -17 24 -12 43 -23 41 -26z m-571 -32 c9 -16 13 -30 11 -30 -3 0 -12
14 -21 30 -9 17 -13 30 -11 30 3 0 12 -13 21 -30z m682 4 c-3 -3 -12 -4 -19
-1 -8 3 -5 6 6 6 11 1 17 -2 13 -5z m186 -1 c-7 -2 -19 -2 -25 0 -7 3 -2 5 12
5 14 0 19 -2 13 -5z m-75 -10 c-16 -2 -40 -2 -55 0 -16 2 -3 4 27 4 30 0 43
-2 28 -4z m-758 -53 c6 -11 8 -20 6 -20 -3 0 -10 9 -16 20 -6 11 -8 20 -6 20
3 0 10 -9 16 -20z m92 -125 c31 -37 33 -43 11 -22 -17 16 -45 50 -63 75 -32
47 -25 40 52 -53z m1432 10 c-9 -14 -18 -25 -21 -25 -5 0 5 18 20 38 17 22 18
13 1 -13z m-44 -28 c0 -2 -12 -14 -27 -28 l-28 -24 24 28 c23 25 31 32 31 24z
m20 -11 c0 -2 -8 -10 -17 -17 -16 -13 -17 -12 -4 4 13 16 21 21 21 13z m-1315
-66 c21 -22 37 -40 34 -40 -3 0 -23 18 -44 40 -21 22 -37 40 -34 40 3 0 23
-18 44 -40z m1235 26 c0 -2 -8 -10 -17 -17 -16 -13 -17 -12 -4 4 13 16 21 21
21 13z m-90 -61 c0 -6 -76 -45 -87 -45 -4 1 12 12 37 25 50 27 50 27 50 20z
m-980 -91 c0 -2 -9 0 -20 6 -11 6 -20 13 -20 16 0 2 9 0 20 -6 11 -6 20 -13
20 -16z m387 20 c-3 -3 -12 -4 -19 -1 -8 3 -5 6 6 6 11 1 17 -2 13 -5z m40
-10 c-3 -3 -12 -4 -19 -1 -8 3 -5 6 6 6 11 1 17 -2 13 -5z m360 0 c-3 -3 -12
-4 -19 -1 -8 3 -5 6 6 6 11 1 17 -2 13 -5z m-300 -10 c-3 -3 -12 -4 -19 -1 -8
3 -5 6 6 6 11 1 17 -2 13 -5z m250 0 c-3 -3 -12 -4 -19 -1 -8 3 -5 6 6 6 11 1
17 -2 13 -5z m-104 -11 c-18 -2 -48 -2 -65 0 -18 2 -4 4 32 4 36 0 50 -2 33
-4z m-336 -99 c-3 -3 -12 -4 -19 -1 -8 3 -5 6 6 6 11 1 17 -2 13 -5z m390 0
c-3 -3 -12 -4 -19 -1 -8 3 -5 6 6 6 11 1 17 -2 13 -5z m-334 -11 c-7 -2 -19
-2 -25 0 -7 3 -2 5 12 5 14 0 19 -2 13 -5z m280 0 c-7 -2 -19 -2 -25 0 -7 3
-2 5 12 5 14 0 19 -2 13 -5z m-110 -10 c-23 -2 -64 -2 -90 0 -26 2 -7 3 42 3
50 0 71 -1 48 -3z"/>
    <path fill="#5f8bb9" filter="url(#electricGlow) url(#electricCrackle)" d="M2075 2020 c10 -11 20 -20 23 -20 3 0 -3 9 -13 20 -10 11 -20 20 -23
20 -3 0 3 -9 13 -20z"/>
    <path fill="#5f8bb9" filter="url(#electricGlow) url(#electricCrackle)" d="M1258 2160 c-185 -34 -334 -115 -468 -257 -156 -164 -221 -332 -218
-559 1 -108 1 -109 14 -59 6 28 13 40 13 27 1 -13 -4 -42 -10 -65 -6 -26 -7
-51 -1 -67 7 -19 10 -5 16 65 6 81 24 176 41 230 6 16 5 17 -4 5 -6 -8 -11
-10 -11 -5 0 14 20 42 20 30 1 -5 14 16 31 48 16 32 27 62 24 67 -3 5 0 12 6
16 8 5 9 3 4 -6 -6 -9 -4 -11 4 -6 7 5 10 14 7 21 -3 8 3 19 12 27 16 12 16
11 2 -7 -18 -25 -12 -19 80 80 41 44 59 67 40 50 l-35 -30 29 32 c16 18 33 30
38 27 4 -3 20 3 36 14 196 139 490 162 720 56 40 -18 86 -42 102 -54 16 -12
34 -19 39 -16 5 3 15 -2 22 -12 13 -16 12 -16 -6 -2 -20 15 -20 15 -1 -8 11
-12 25 -21 32 -18 6 2 36 -21 65 -52 l54 -57 -59 55 -60 55 61 -67 c34 -37 84
-104 112 -150 28 -45 51 -78 51 -73 1 13 29 -37 29 -50 0 -5 -7 1 -15 15 -10
16 -13 18 -8 5 45 -125 57 -187 61 -315 4 -105 1 -154 -12 -220 -10 -47 -18
-97 -18 -112 0 -15 -3 -25 -7 -23 -11 7 -43 -83 -34 -96 4 -7 3 -9 -3 -6 -6 4
-16 -6 -22 -21 -22 -47 -103 -174 -148 -229 -24 -30 -42 -57 -39 -62 6 -10
-68 -84 -76 -75 -4 3 -31 -15 -61 -39 -74 -60 -172 -114 -269 -148 -86 -30
-103 -39 -70 -39 11 0 23 4 26 9 3 5 16 7 28 3 13 -3 19 -1 15 5 -4 6 11 10
36 10 83 0 327 120 418 205 19 18 24 24 10 13 l-26 -20 24 27 c13 15 29 24 36
22 15 -6 141 132 137 150 -1 7 6 20 15 27 16 12 17 12 8 -1 -5 -9 0 -4 13 10
29 32 90 138 125 218 46 103 78 245 73 327 -3 54 -2 61 4 30 5 -25 7 16 5 110
-4 175 -23 263 -85 391 -123 255 -364 457 -625 524 -89 24 -272 34 -347 20z
m175 -7 c-23 -2 -64 -2 -90 0 -26 2 -7 3 42 3 50 0 71 -1 48 -3z m-170 -10
c-7 -2 -19 -2 -25 0 -7 3 -2 5 12 5 14 0 19 -2 13 -5z m270 0 c-7 -2 -19 -2
-25 0 -7 3 -2 5 12 5 14 0 19 -2 13 -5z m54 -9 c-3 -3 -12 -4 -19 -1 -8 3 -5
6 6 6 11 1 17 -2 13 -5z m40 -10 c-3 -3 -12 -4 -19 -1 -8 3 -5 6 6 6 11 1 17
-2 13 -5z m103 -34 c8 -5 11 -10 5 -10 -5 0 -17 5 -25 10 -8 5 -10 10 -5 10 6
0 17 -5 25 -10z m120 -66 c0 -2 -9 0 -20 6 -11 6 -20 13 -20 16 0 2 9 0 20 -6
11 -6 20 -13 20 -16z m-930 -17 c0 -1 -21 -20 -47 -41 l-48 -38 44 41 c40 38
51 46 51 38z m468 -34 c-26 -2 -71 -2 -100 0 -29 2 -8 3 47 3 55 0 79 -1 53
-3z m557 -13 c10 -11 16 -20 13 -20 -3 0 -13 9 -23 20 -10 11 -16 20 -13 20 3
0 13 -9 23 -20z m-738 4 c-3 -3 -12 -4 -19 -1 -8 3 -5 6 6 6 11 1 17 -2 13 -5z
m276 -1 c-7 -2 -19 -2 -25 0 -7 3 -2 5 12 5 14 0 19 -2 13 -5z m-316 -9 c-3
-3 -12 -4 -19 -1 -8 3 -5 6 6 6 11 1 17 -2 13 -5z m360 0 c-3 -3 -12 -4 -19
-1 -8 3 -5 6 6 6 11 1 17 -2 13 -5z m40 -10 c-3 -3 -12 -4 -19 -1 -8 3 -5 6 6
6 11 1 17 -2 13 -5z m43 -14 c8 -5 11 -10 5 -10 -5 0 -17 5 -25 10 -8 5 -10
10 -5 10 6 0 17 -5 25 -10z m420 -45 c30 -30 52 -55 49 -55 -2 0 -29 25 -59
55 -30 30 -52 55 -49 55 2 0 29 -25 59 -55z m-980 30 c-14 -8 -29 -14 -35 -14
-5 0 1 6 15 14 14 8 30 14 35 14 6 0 -1 -6 -15 -14z m-270 -42 c-54 -61 -68
-73 -50 -48 17 25 83 95 88 95 3 0 -15 -21 -38 -47z m910 22 c17 -9 30 -18 30
-21 0 -4 -59 23 -69 32 -10 9 13 3 39 -11z m-690 0 c0 -2 -10 -9 -22 -15 -22
-11 -22 -10 -4 4 21 17 26 19 26 11z m1111 -102 c13 -16 12 -17 -3 -4 -10 7
-18 15 -18 17 0 8 8 3 21 -13z m-1421 -43 c-6 -11 -13 -20 -16 -20 -2 0 0 9 6
20 6 11 13 20 16 20 2 0 0 -9 -6 -20z m120 -3 c0 -2 -15 -16 -32 -33 l-33 -29
29 33 c28 30 36 37 36 29z m-169 -94 c-12 -20 -14 -14 -5 12 4 9 9 14 11 11 3
-2 0 -13 -6 -23z m1559 7 c6 -11 8 -20 6 -20 -3 0 -10 9 -16 20 -6 11 -8 20
-6 20 3 0 10 -9 16 -20z m-229 -7 c13 -16 12 -17 -3 -4 -10 7 -18 15 -18 17 0
8 8 3 21 -13z m39 -54 c15 -28 5 -23 -15 7 -9 15 -12 23 -6 20 6 -4 16 -16 21
-27z m230 -24 c0 -5 -5 -3 -10 5 -5 8 -10 20 -10 25 0 6 5 3 10 -5 5 -8 10
-19 10 -25z m-1633 -27 c-3 -8 -6 -5 -6 6 -1 11 2 17 5 13 3 -3 4 -12 1 -19z
m1433 2 c6 -11 8 -20 6 -20 -3 0 -10 9 -16 20 -6 11 -8 20 -6 20 3 0 10 -9 16
-20z m-1443 -42 c-3 -8 -6 -5 -6 6 -1 11 2 17 5 13 3 -3 4 -12 1 -19z m-10
-70 c-3 -7 -5 -2 -5 12 0 14 2 19 5 13 2 -7 2 -19 0 -25z m1700 -20 c-3 -8 -6
-5 -6 6 -1 11 2 17 5 13 3 -3 4 -12 1 -19z m10 -50 c-3 -8 -6 -5 -6 6 -1 11 2
17 5 13 3 -3 4 -12 1 -19z m-1690 -10 c-3 -8 -6 -5 -6 6 -1 11 2 17 5 13 3 -3
4 -12 1 -19z m1510 -10 c-3 -8 -6 -5 -6 6 -1 11 2 17 5 13 3 -3 4 -12 1 -19z
m10 -40 c-3 -8 -6 -5 -6 6 -1 11 2 17 5 13 3 -3 4 -12 1 -19z m180 -50 c-2
-13 -4 -3 -4 22 0 25 2 35 4 23 2 -13 2 -33 0 -45z m-170 -10 c-3 -7 -5 -2 -5
12 0 14 2 19 5 13 2 -7 2 -19 0 -25z m10 -105 c-2 -16 -4 -5 -4 22 0 28 2 40
4 28 2 -13 2 -35 0 -50z m0 -110 c-2 -16 -4 -5 -4 22 0 28 2 40 4 28 2 -13 2
-35 0 -50z m150 -25 c-3 -7 -5 -2 -5 12 0 14 2 19 5 13 2 -7 2 -19 0 -25z
m-160 -60 c-3 -7 -5 -2 -5 12 0 14 2 19 5 13 2 -7 2 -19 0 -25z m150 10 c-3
-8 -6 -5 -6 6 -1 11 2 17 5 13 3 -3 4 -12 1 -19z m-10 -40 c-3 -8 -6 -5 -6 6
-1 11 2 17 5 13 3 -3 4 -12 1 -19z m-150 -20 c-3 -8 -6 -5 -6 6 -1 11 2 17 5
13 3 -3 4 -12 1 -19z m140 -20 c-3 -8 -6 -5 -6 6 -1 11 2 17 5 13 3 -3 4 -12
1 -19z m-36 -105 c-12 -20 -14 -14 -5 12 4 9 9 14 11 11 3 -2 0 -13 -6 -23z
m-40 -86 c-10 -9 -11 -8 -5 6 3 10 9 15 12 12 3 -3 0 -11 -7 -18z m-31 -57
c-6 -11 -13 -20 -16 -20 -2 0 0 9 6 20 6 11 13 20 16 20 2 0 0 -9 -6 -20z
m-150 -30 c-6 -11 -13 -20 -16 -20 -2 0 0 9 6 20 6 11 13 20 16 20 2 0 0 -9
-6 -20z m120 -19 c-5 -11 -15 -23 -21 -27 -6 -3 -3 5 6 20 20 30 30 35 15 7z
m-157 -42 c-10 -17 -24 -36 -32 -42 -8 -7 -2 7 14 31 32 49 45 57 18 11z m97
-42 c0 -2 -12 -14 -27 -28 l-28 -24 24 28 c23 25 31 32 31 24z m-140 -21 c0
-2 -8 -10 -17 -17 -16 -13 -17 -12 -4 4 13 16 21 21 21 13z m-30 -39 c0 -2
-10 -12 -22 -23 l-23 -19 19 23 c18 21 26 27 26 19z m120 0 c0 -2 -17 -19 -37
-38 l-38 -34 34 38 c33 34 41 42 41 34z m-150 -131 c0 -3 -15 -14 -32 -26
l-33 -22 30 26 c31 27 35 29 35 22z m-120 -19 c0 -2 -10 -12 -22 -23 l-23 -19
19 23 c18 21 26 27 26 19z m50 -32 c0 -2 -10 -9 -22 -15 -22 -11 -22 -10 -4 4
21 17 26 19 26 11z m-100 -9 c0 -2 -8 -10 -17 -17 -16 -13 -17 -12 -4 4 13 16
21 21 21 13z m50 -21 c0 -6 -97 -55 -107 -55 -4 1 17 14 47 30 61 32 60 32 60
25z m-120 -30 c0 -2 -10 -9 -22 -15 -22 -11 -22 -10 -4 4 21 17 26 19 26 11z
m-75 -63 c-3 -3 -11 0 -18 7 -9 10 -8 11 6 5 10 -3 15 -9 12 -12z m-45 -13
c-42 -12 -57 -8 -25 6 17 7 34 10 40 7 5 -3 -1 -9 -15 -13z"/>
    <path fill="#5f8bb9" filter="url(#electricGlow) url(#electricCrackle)" d="M1605 1743 c30 -8 45 -23 46 -47 1 -18 2 -18 6 -3 6 24 -24 57 -51
56 -20 -1 -20 -2 -1 -6z"/>
    <path fill="#5f8bb9" filter="url(#electricGlow) url(#electricCrackle)" d="M1510 1673 l-65 -68 68 65 c62 60 72 70 64 70 -1 0 -32 -30 -67 -67z"/>
    <path fill="#5f8bb9" filter="url(#electricGlow) url(#electricCrackle)" d="M1631 1647 c-13 -21 -12 -21 5 -5 10 10 16 20 13 22 -3 3 -11 -5 -18
-17z"/>
    <path fill="#5f8bb9" filter="url(#electricGlow) url(#electricCrackle)" d="M1569 1563 c-13 -16 -12 -17 4 -4 9 7 17 15 17 17 0 8 -8 3 -21 -13z"/>
    <path fill="#5f8bb9" filter="url(#electricGlow) url(#electricCrackle)" d="M1255 1428 l-110 -113 113 110 c104 102 117 115 109 115 -1 0 -52
-51 -112 -112z"/>
    <path fill="#5f8bb9" filter="url(#electricGlow) url(#electricCrackle)" d="M1768 1473 c7 -3 16 -2 19 1 4 3 -2 6 -13 5 -11 0 -14 -3 -6 -6z"/>
    <path fill="#5f8bb9" filter="url(#electricGlow) url(#electricCrackle)" d="M1832 1470 c14 -4 32 -11 40 -15 7 -3 4 1 -6 9 -11 9 -29 16 -40 15
-17 -1 -16 -2 6 -9z"/>
    <path fill="#5f8bb9" filter="url(#electricGlow) url(#electricCrackle)" d="M1719 1449 l-24 -20 28 17 c15 9 27 18 27 20 0 8 -8 4 -31 -17z"/>
    <path fill="#5f8bb9" filter="url(#electricGlow) url(#electricCrackle)" d="M828 1443 c6 -2 18 -2 25 0 6 3 1 5 -13 5 -14 0 -19 -2 -12 -5z"/>
    <path fill="#5f8bb9" filter="url(#electricGlow) url(#electricCrackle)" d="M1479 1433 c-13 -16 -12 -17 4 -4 9 7 17 15 17 17 0 8 -8 3 -21 -13z"/>
    <path fill="#5f8bb9" filter="url(#electricGlow) url(#electricCrackle)" d="M771 1416 c-13 -14 -21 -31 -18 -38 4 -9 6 -8 6 4 1 9 13 26 27 37
15 12 22 21 17 21 -5 0 -20 -11 -32 -24z"/>
    <path fill="#5f8bb9" filter="url(#electricGlow) url(#electricCrackle)" d="M871 1438 c2 -2 20 -16 39 -33 l35 -30 -29 33 c-17 17 -34 32 -40 32
-5 0 -7 -1 -5 -2z"/>
    <path fill="#5f8bb9" filter="url(#electricGlow) url(#electricCrackle)" d="M1680 1399 c-6 -11 -10 -27 -8 -35 2 -8 8 1 14 20 12 40 10 46 -6 15z"/>
    <path fill="#5f8bb9" filter="url(#electricGlow) url(#electricCrackle)" d="M1918 1405 c5 -11 12 -27 15 -35 5 -13 6 -13 6 1 1 8 -6 24 -15 35
-15 19 -15 19 -6 -1z"/>
    <path fill="#5f8bb9" filter="url(#electricGlow) url(#electricCrackle)" d="M1787 1392 c-10 -2 -22 -15 -28 -29 -18 -47 36 -93 77 -65 44 30 5
107 -49 94z"/>
    <path fill="#5f8bb9" filter="url(#electricGlow) url(#electricCrackle)" d="M94 1265 c0 -49 1 -71 3 -48 2 23 2 64 0 90 -2 26 -3 8 -3 -42z"/>
    <path fill="#5f8bb9" filter="url(#electricGlow) url(#electricCrackle)" d="M1409 1333 c-13 -16 -12 -17 4 -4 9 7 17 15 17 17 0 8 -8 3 -21 -13z"/>
    <path fill="#5f8bb9" filter="url(#electricGlow) url(#electricCrackle)" d="M750 1331 c0 -6 4 -13 10 -16 6 -3 7 1 4 9 -7 18 -14 21 -14 7z"/>
    <path fill="#5f8bb9" filter="url(#electricGlow) url(#electricCrackle)" d="M1030 1298 c41 -45 50 -53 50 -45 0 2 -21 23 -47 47 l-48 45 45 -47z"/>
    <path fill="#5f8bb9" filter="url(#electricGlow) url(#electricCrackle)" d="M1671 1314 c0 -11 3 -14 6 -6 3 7 2 16 -1 19 -3 4 -6 -2 -5 -13z"/>
    <path fill="#5f8bb9" filter="url(#electricGlow) url(#electricCrackle)" d="M1931 1304 c0 -11 3 -14 6 -6 3 7 2 16 -1 19 -3 4 -6 -2 -5 -13z"/>
    <path fill="#5f8bb9" filter="url(#electricGlow) url(#electricCrackle)" d="M770 1296 c0 -2 8 -10 18 -17 15 -13 16 -12 3 4 -13 16 -21 21 -21
13z"/>
    <path fill="#5f8bb9" filter="url(#electricGlow) url(#electricCrackle)" d="M1359 1263 c-13 -16 -12 -17 4 -4 16 13 21 21 13 21 -2 0 -10 -8 -17
-17z"/>
    <path fill="#5f8bb9" filter="url(#electricGlow) url(#electricCrackle)" d="M825 1230 c10 -11 20 -20 23 -20 3 0 -3 9 -13 20 -10 11 -20 20 -23
20 -3 0 3 -9 13 -20z"/>
    <path fill="#5f8bb9" filter="url(#electricGlow) url(#electricCrackle)" d="M1555 1170 c-43 -44 -77 -81 -74 -82 2 -2 40 34 83 79 44 46 78 83
75 83 -2 0 -40 -36 -84 -80z"/>
    <path fill="#5f8bb9" filter="url(#electricGlow) url(#electricCrackle)" d="M1880 1229 c-22 -18 -22 -19 -3 -10 12 6 25 16 28 21 9 15 3 12 -25
-11z"/>
    <path fill="#5f8bb9" filter="url(#electricGlow) url(#electricCrackle)" d="M1690 1175 c-24 -25 -42 -45 -39 -45 3 0 25 20 49 45 24 25 42 45 39
45 -3 0 -25 -20 -49 -45z"/>
    <path fill="#5f8bb9" filter="url(#electricGlow) url(#electricCrackle)" d="M1788 1203 c12 -2 32 -2 45 0 12 2 2 4 -23 4 -25 0 -35 -2 -22 -4z"/>
    <path fill="#5f8bb9" filter="url(#electricGlow) url(#electricCrackle)" d="M865 1180 c10 -11 20 -20 23 -20 3 0 -3 9 -13 20 -10 11 -20 20 -23
20 -3 0 3 -9 13 -20z"/>
    <path fill="#5f8bb9" filter="url(#electricGlow) url(#electricCrackle)" d="M1289 1163 c-13 -16 -12 -17 4 -4 16 13 21 21 13 21 -2 0 -10 -8 -17
-17z"/>
    <path fill="#5f8bb9" filter="url(#electricGlow) url(#electricCrackle)" d="M905 1130 c10 -11 20 -20 23 -20 3 0 -3 9 -13 20 -10 11 -20 20 -23
20 -3 0 3 -9 13 -20z"/>
    <path fill="#5f8bb9" filter="url(#electricGlow) url(#electricCrackle)" d="M1239 1093 c-13 -16 -12 -17 4 -4 9 7 17 15 17 17 0 8 -8 3 -21 -13z"/>
    <path fill="#5f8bb9" filter="url(#electricGlow) url(#electricCrackle)" d="M1584 1078 l-19 -23 23 19 c12 11 22 21 22 23 0 8 -8 2 -26 -19z"/>
    <path fill="#5f8bb9" filter="url(#electricGlow) url(#electricCrackle)" d="M940 1086 c0 -2 8 -10 18 -17 15 -13 16 -12 3 4 -13 16 -21 21 -21
13z"/>
    <path fill="#5f8bb9" filter="url(#electricGlow) url(#electricCrackle)" d="M1838 1063 c7 -3 16 -2 19 1 4 3 -2 6 -13 5 -11 0 -14 -3 -6 -6z"/>
    <path fill="#5f8bb9" filter="url(#electricGlow) url(#electricCrackle)" d="M1562 981 c-2 -61 -6 -79 -24 -100 l-22 -26 27 26 c27 24 28 29 24
100 l-3 74 -2 -74z"/>
    <path fill="#5f8bb9" filter="url(#electricGlow) url(#electricCrackle)" d="M1915 1030 c10 -11 20 -20 23 -20 3 0 -3 9 -13 20 -10 11 -20 20 -23
20 -3 0 3 -9 13 -20z"/>
    <path fill="#5f8bb9" filter="url(#electricGlow) url(#electricCrackle)" d="M995 1020 c10 -11 20 -20 23 -20 3 0 -3 9 -13 20 -10 11 -20 20 -23
20 -3 0 3 -9 13 -20z"/>
    <path fill="#5f8bb9" filter="url(#electricGlow) url(#electricCrackle)" d="M1749 1023 c-13 -16 -12 -17 4 -4 16 13 21 21 13 21 -2 0 -10 -8 -17
-17z"/>
    <path fill="#5f8bb9" filter="url(#electricGlow) url(#electricCrackle)" d="M1472 986 c-1 -28 -10 -49 -29 -70 l-28 -31 33 31 c29 27 33 36 29
70 l-4 39 -1 -39z"/>
    <path fill="#5f8bb9" filter="url(#electricGlow) url(#electricCrackle)" d="M1725 989 c-4 -6 -5 -12 -2 -15 2 -3 7 2 10 11 7 17 1 20 -8 4z"/>
    <path fill="#5f8bb9" filter="url(#electricGlow) url(#electricCrackle)" d="M1946 987 c3 -10 9 -15 12 -12 3 3 0 11 -7 18 -10 9 -11 8 -5 -6z"/>
    <path fill="#5f8bb9" filter="url(#electricGlow) url(#electricCrackle)" d="M1042 965 c15 -16 29 -27 31 -24 3 2 -10 15 -27 28 l-31 24 27 -28z"/>
    <path fill="#5f8bb9" filter="url(#electricGlow) url(#electricCrackle)" d="M1141 960 c-13 -11 -19 -20 -14 -20 6 0 18 9 28 20 23 25 17 25 -14
0z"/>
    <path fill="#5f8bb9" filter="url(#electricGlow) url(#electricCrackle)" d="M1816 967 c-22 -16 -18 -55 7 -71 39 -24 79 44 41 71 -10 7 -21 13
-24 13 -3 0 -14 -6 -24 -13z"/>
    <path fill="#5f8bb9" filter="url(#electricGlow) url(#electricCrackle)" d="M1712 935 c0 -16 2 -22 5 -12 2 9 2 23 0 30 -3 6 -5 -1 -5 -18z"/>
    <path fill="#5f8bb9" filter="url(#electricGlow) url(#electricCrackle)" d="M1962 935 c0 -16 2 -22 5 -12 2 9 2 23 0 30 -3 6 -5 -1 -5 -18z"/>
    <path fill="#5f8bb9" filter="url(#electricGlow) url(#electricCrackle)" d="M1675 840 l-49 -55 54 52 c30 29 52 54 50 56 -3 1 -27 -22 -55 -53z"/>
    <path fill="#5f8bb9" filter="url(#electricGlow) url(#electricCrackle)" d="M1946 873 c-6 -14 -5 -15 5 -6 7 7 10 15 7 18 -3 3 -9 -2 -12 -12z"/>
    <path fill="#5f8bb9" filter="url(#electricGlow) url(#electricCrackle)" d="M1339 823 l-34 -38 38 34 c20 19 37 36 37 38 0 8 -8 0 -41 -34z"/>
    <path fill="#5f8bb9" filter="url(#electricGlow) url(#electricCrackle)" d="M1890 820 c-9 -6 -10 -10 -3 -10 6 0 15 5 18 10 8 12 4 12 -15 0z"/>
    <path fill="#5f8bb9" filter="url(#electricGlow) url(#electricCrackle)" d="M1395 748 l-70 -73 73 70 c67 64 77 75 69 75 -1 0 -34 -33 -72 -72z"/>
    <path fill="#5f8bb9" filter="url(#electricGlow) url(#electricCrackle)" d="M1768 801 c-10 -13 -10 -14 1 -5 7 7 32 9 59 6 58 -6 53 3 -5 11 -32
4 -45 1 -55 -12z"/>
    <path fill="#5f8bb9" filter="url(#electricGlow) url(#electricCrackle)" d="M1554 729 c-16 -17 -38 -35 -49 -39 -14 -6 -15 -9 -5 -9 9 -1 34 17
55 39 21 22 37 40 34 40 -3 0 -18 -14 -35 -31z"/>
    <path fill="#5f8bb9" filter="url(#electricGlow) url(#electricCrackle)" d="M1645 688 l-70 -73 73 70 c67 64 77 75 69 75 -1 0 -34 -33 -72 -72z"/>
    <path fill="#5f8bb9" filter="url(#electricGlow) url(#electricCrackle)" d="M1448 683 c7 -3 16 -2 19 1 4 3 -2 6 -13 5 -11 0 -14 -3 -6 -6z"/>
    <path fill="#5f8bb9" filter="url(#electricGlow) url(#electricCrackle)" d="M1255 618 l-40 -43 43 40 c39 36 47 45 39 45 -2 0 -21 -19 -42 -42z"/>
    <path fill="#5f8bb9" filter="url(#electricGlow) url(#electricCrackle)" d="M1365 619 c-4 -6 -5 -12 -2 -15 2 -3 7 2 10 11 7 17 1 20 -8 4z"/>
    <path fill="#5f8bb9" filter="url(#electricGlow) url(#electricCrackle)" d="M1463 599 c-40 -15 -25 -79 18 -79 25 0 42 26 35 54 -7 29 -23 36
-53 25z"/>
    <path fill="#5f8bb9" filter="url(#electricGlow) url(#electricCrackle)" d="M1352 565 c0 -16 2 -22 5 -12 2 9 2 23 0 30 -3 6 -5 -1 -5 -18z"/>
    <path fill="#5f8bb9" filter="url(#electricGlow) url(#electricCrackle)" d="M1180 559 c-22 -18 -22 -19 -3 -10 12 6 25 16 28 21 9 15 3 12 -25
-11z"/>
    <path fill="#5f8bb9" filter="url(#electricGlow) url(#electricCrackle)" d="M1590 522 c0 -6 -12 -25 -27 -44 -22 -27 -23 -29 -4 -13 27 23 45 54
37 63 -3 3 -6 0 -6 -6z"/>
    <path fill="#5f8bb9" filter="url(#electricGlow) url(#electricCrackle)" d="M1300 495 c-25 -13 -41 -24 -37 -25 11 0 87 39 87 45 0 7 0 7 -50
-20z"/>
    <path fill="#5f8bb9" filter="url(#electricGlow) url(#electricCrackle)" d="M900 490 c0 -5 5 -10 11 -10 5 0 7 5 4 10 -3 6 -8 10 -11 10 -2 0 -4
-4 -4 -10z"/>
    <path fill="#5f8bb9" filter="url(#electricGlow) url(#electricCrackle)" d="M1018 493 c7 -3 16 -2 19 1 4 3 -2 6 -13 5 -11 0 -14 -3 -6 -6z"/>
    <path fill="#5f8bb9" filter="url(#electricGlow) url(#electricCrackle)" d="M935 480 c-8 -13 5 -13 25 0 13 8 13 10 -2 10 -9 0 -20 -4 -23 -10z"/>
    <path fill="#5f8bb9" filter="url(#electricGlow) url(#electricCrackle)" d="M998 453 c7 -3 16 -2 19 1 4 3 -2 6 -13 5 -11 0 -14 -3 -6 -6z"/>
    <path fill="#5f8bb9" filter="url(#electricGlow) url(#electricCrackle)" d="M1188 453 c7 -3 16 -2 19 1 4 3 -2 6 -13 5 -11 0 -14 -3 -6 -6z"/>
    <path fill="#5f8bb9" filter="url(#electricGlow) url(#electricCrackle)" d="M1385 434 c-18 -16 -22 -22 -9 -15 18 9 53 42 43 41 -2 -1 -17 -12
-34 -26z"/>
    <path fill="#5f8bb9" filter="url(#electricGlow) url(#electricCrackle)" d="M1068 443 c17 -2 47 -2 65 0 17 2 3 4 -33 4 -36 0 -50 -2 -32 -4z"/>
    <path fill="#5f8bb9" filter="url(#electricGlow) url(#electricCrackle)" d="M1463 433 c9 -2 25 -2 35 0 9 3 1 5 -18 5 -19 0 -27 -2 -17 -5z"/>
    <path fill="#5f8bb9" filter="url(#electricGlow) url(#electricCrackle)" d="M1300 390 c-8 -5 -10 -10 -5 -10 6 0 17 5 25 10 8 5 11 10 5 10 -5 0
-17 -5 -25 -10z"/>
    <path fill="#5f8bb9" filter="url(#electricGlow) url(#electricCrackle)" d="M1245 370 c-13 -6 -15 -9 -5 -9 8 0 22 4 30 9 18 12 2 12 -25 0z"/>
    <path fill="#5f8bb9" filter="url(#electricGlow) url(#electricCrackle)" d="M1799 343 l-34 -38 38 34 c34 33 42 41 34 41 -2 0 -19 -17 -38 -37z"/>
    <path fill="#5f8bb9" filter="url(#electricGlow) url(#electricCrackle)" d="M915 350 c-3 -5 -2 -10 4 -10 5 0 13 5 16 10 3 6 2 10 -4 10 -5 0
-13 -4 -16 -10z"/>
    <path fill="#5f8bb9" filter="url(#electricGlow) url(#electricCrackle)" d="M1198 353 c7 -3 16 -2 19 1 4 3 -2 6 -13 5 -11 0 -14 -3 -6 -6z"/>
    <path fill="#5f8bb9" filter="url(#electricGlow) url(#electricCrackle)" d="M950 340 c-11 -7 -5 -8 20 -4 43 8 51 14 19 14 -13 0 -31 -5 -39 -10z"/>
    <path fill="#5f8bb9" filter="url(#electricGlow) url(#electricCrackle)" d="M1123 343 c9 -2 25 -2 35 0 9 3 1 5 -18 5 -19 0 -27 -2 -17 -5z"/>
    <path fill="#1e252f" d="M1123 2403 c9 -2 25 -2 35 0 9 3 1 5 -18 5 -19 0 -27 -2 -17 -5z"/>
    <path fill="#1e252f" d="M1338 2403 c12 -2 30 -2 40 0 9 3 -1 5 -23 4 -22 0 -30 -2 -17 -4z"/>
    <path fill="#1e252f" d="M1048 2393 c6 -2 18 -2 25 0 6 3 1 5 -13 5 -14 0 -19 -2 -12 -5z"/>
    <path fill="#1e252f" d="M1428 2393 c6 -2 18 -2 25 0 6 3 1 5 -13 5 -14 0 -19 -2 -12 -5z"/>
    <path fill="#1e252f" d="M998 2383 c7 -3 16 -2 19 1 4 3 -2 6 -13 5 -11 0 -14 -3 -6 -6z"/>
    <path fill="#1e252f" d="M1488 2383 c7 -3 16 -2 19 1 4 3 -2 6 -13 5 -11 0 -14 -3 -6 -6z"/>
    <path fill="#1e252f" d="M1528 2373 c7 -3 16 -2 19 1 4 3 -2 6 -13 5 -11 0 -14 -3 -6 -6z"/>
    <path fill="#1e252f" d="M810 2330 c-8 -5 -10 -10 -5 -10 6 0 17 5 25 10 8 5 11 10 5 10 -5 0
-17 -5 -25 -10z"/>
    <path fill="#1e252f" d="M718 2289 c-32 -16 -58 -32 -58 -34 0 -5 119 52 129 61 13 12 -22 -1
-71 -27z"/>
    <path fill="#1e252f" d="M1701 2316 c10 -9 89 -46 89 -41 0 5 -75 45 -86 45 -4 0 -5 -2 -3 -4z"/>
    <path fill="#1e252f" d="M1347 2293 c18 -2 50 -2 70 0 21 2 7 4 -32 4 -38 0 -55 -2 -38 -4z"/>
    <path fill="#1e252f" d="M1248 2283 c7 -3 16 -2 19 1 4 3 -2 6 -13 5 -11 0 -14 -3 -6 -6z"/>
    <path fill="#1e252f" d="M1498 2283 c6 -2 18 -2 25 0 6 3 1 5 -13 5 -14 0 -19 -2 -12 -5z"/>
    <path fill="#1e252f" d="M1188 2273 c6 -2 18 -2 25 0 6 3 1 5 -13 5 -14 0 -19 -2 -12 -5z"/>
    <path fill="#1e252f" d="M1558 2273 c6 -2 18 -2 25 0 6 3 1 5 -13 5 -14 0 -19 -2 -12 -5z"/>
    <path fill="#1e252f" d="M1148 2263 c7 -3 16 -2 19 1 4 3 -2 6 -13 5 -11 0 -14 -3 -6 -6z"/>
    <path fill="#1e252f" d="M607 2225 c-20 -14 -37 -28 -37 -31 0 -2 18 8 40 22 35 23 47 34 37
34 -1 0 -19 -11 -40 -25z"/>
    <path fill="#1e252f" d="M990 2210 c-8 -5 -10 -10 -5 -10 6 0 17 5 25 10 8 5 11 10 5 10 -5 0
-17 -5 -25 -10z"/>
    <path fill="#1e252f" d="M1770 2210 c8 -5 20 -10 25 -10 6 0 3 5 -5 10 -8 5 -19 10 -25 10 -5
0 -3 -5 5 -10z"/>
    <path fill="#1e252f" d="M1880 2217 c0 -2 19 -19 43 -37 23 -19 36 -26 28 -17 -15 19 -71 61
-71 54z"/>
    <path fill="#1e252f" d="M539 2173 c-13 -16 -12 -17 4 -4 16 13 21 21 13 21 -2 0 -10 -8 -17
-17z"/>
    <path fill="#1e252f" d="M924 2174 c-18 -14 -18 -15 4 -4 12 6 22 13 22 15 0 8 -5 6 -26 -11z"/>
    <path fill="#1e252f" d="M1830 2186 c0 -3 9 -10 20 -16 11 -6 20 -8 20 -6 0 3 -9 10 -20 16
-11 6 -20 8 -20 6z"/>
    <path fill="#1e252f" d="M435 2078 l-80 -83 83 80 c76 74 87 85 79 85 -1 0 -38 -37 -82 -82z"/>
    <path fill="#1e252f" d="M874 2144 c-18 -14 -18 -15 4 -4 12 6 22 13 22 15 0 8 -5 6 -26 -11z"/>
    <path fill="#1e252f" d="M1343 2153 c26 -2 67 -2 90 0 23 2 2 3 -48 3 -49 0 -68 -1 -42 -3z"/>
    <path fill="#1e252f" d="M1238 2143 c6 -2 18 -2 25 0 6 3 1 5 -13 5 -14 0 -19 -2 -12 -5z"/>
    <path fill="#1e252f" d="M1508 2143 c6 -2 18 -2 25 0 6 3 1 5 -13 5 -14 0 -19 -2 -12 -5z"/>
    <path fill="#1e252f" d="M2010 2108 c41 -45 50 -53 50 -45 0 2 -21 23 -47 47 l-48 45 45 -47z"/>
    <path fill="#1e252f" d="M1568 2133 c7 -3 16 -2 19 1 4 3 -2 6 -13 5 -11 0 -14 -3 -6 -6z"/>
    <path fill="#1e252f" d="M829 2113 c-13 -16 -12 -17 4 -4 9 7 17 15 17 17 0 8 -8 3 -21 -13z"/>
    <path fill="#1e252f" d="M1608 2123 c7 -3 16 -2 19 1 4 3 -2 6 -13 5 -11 0 -14 -3 -6 -6z"/>
    <path fill="#1e252f" d="M1960 2106 c0 -2 8 -10 18 -17 15 -13 16 -12 3 4 -13 16 -21 21 -21
13z"/>
    <path fill="#1e252f" d="M774 2068 l-29 -33 33 29 c30 28 37 36 29 36 -2 0 -16 -15 -33 -32z"/>
    <path fill="#1e252f" d="M1710 2090 c8 -5 20 -10 25 -10 6 0 3 5 -5 10 -8 5 -19 10 -25 10 -5
0 -3 -5 5 -10z"/>
    <path fill="#1e252f" d="M2000 2076 c0 -2 8 -10 18 -17 15 -13 16 -12 3 4 -13 16 -21 21 -21
13z"/>
    <path fill="#1e252f" d="M1810 2046 c0 -3 9 -10 20 -16 11 -6 20 -8 20 -6 0 3 -9 10 -20 16
-11 6 -20 8 -20 6z"/>
    <path fill="#1e252f" d="M2096 1989 c32 -32 60 -59 62 -59 2 0 -6 14 -18 30 -12 17 -26 30
-31 30 -6 0 -8 4 -5 9 7 10 -29 44 -51 47 -9 2 10 -24 43 -57z m-11 31 c10
-11 16 -20 13 -20 -3 0 -13 9 -23 20 -10 11 -16 20 -13 20 3 0 13 -9 23 -20z"/>
    <path fill="#1e252f" d="M869 1969 l-44 -41 48 38 c26 21 47 40 47 41 0 8 -11 0 -51 -38z"/>
    <path fill="#1e252f" d="M339 1973 c-13 -16 -12 -17 4 -4 9 7 17 15 17 17 0 8 -8 3 -21 -13z"/>
    <path fill="#1e252f" d="M669 1963 l-24 -28 28 24 c25 23 32 31 24 31 -2 0 -14 -12 -28 -27z"/>
    <path fill="#1e252f" d="M1288 1973 c29 -2 74 -2 100 0 26 2 2 3 -53 3 -55 0 -76 -1 -47 -3z"/>
    <path fill="#1e252f" d="M1935 1960 c10 -11 20 -20 23 -20 3 0 -3 9 -13 20 -10 11 -20 20 -23
20 -3 0 3 -9 13 -20z"/>
    <path fill="#1e252f" d="M1188 1963 c7 -3 16 -2 19 1 4 3 -2 6 -13 5 -11 0 -14 -3 -6 -6z"/>
    <path fill="#1e252f" d="M1458 1963 c6 -2 18 -2 25 0 6 3 1 5 -13 5 -14 0 -19 -2 -12 -5z"/>
    <path fill="#1e252f" d="M1148 1953 c7 -3 16 -2 19 1 4 3 -2 6 -13 5 -11 0 -14 -3 -6 -6z"/>
    <path fill="#1e252f" d="M1508 1953 c7 -3 16 -2 19 1 4 3 -2 6 -13 5 -11 0 -14 -3 -6 -6z"/>
    <path fill="#1e252f" d="M309 1933 c-13 -16 -12 -17 4 -4 9 7 17 15 17 17 0 8 -8 3 -21 -13z"/>
    <path fill="#1e252f" d="M1548 1943 c7 -3 16 -2 19 1 4 3 -2 6 -13 5 -11 0 -14 -3 -6 -6z"/>
    <path fill="#1e252f" d="M1590 1930 c8 -5 20 -10 25 -10 6 0 3 5 -5 10 -8 5 -19 10 -25 10 -5
0 -3 -5 5 -10z"/>
    <path fill="#1e252f" d="M2020 1885 c30 -30 57 -55 59 -55 3 0 -19 25 -49 55 -30 30 -57 55
-59 55 -3 0 19 -25 49 -55z"/>
    <path fill="#1e252f" d="M1030 1915 c-14 -8 -20 -14 -15 -14 6 0 21 6 35 14 14 8 21 14 15 14
-5 0 -21 -6 -35 -14z"/>
    <path fill="#1e252f" d="M612 1893 c-26 -38 -34 -53 -29 -53 2 0 16 18 31 40 29 45 28 56 -2
13z"/>
    <path fill="#1e252f" d="M779 1883 c-34 -36 -74 -89 -53 -68 24 23 96 105 92 105 -2 0 -20
-17 -39 -37z"/>
    <path fill="#1e252f" d="M1651 1906 c10 -9 69 -36 69 -32 0 6 -55 36 -66 36 -4 0 -5 -2 -3 -4z"/>
    <path fill="#1e252f" d="M974 1884 c-18 -14 -18 -15 4 -4 12 6 22 13 22 15 0 8 -5 6 -26 -11z"/>
    <path fill="#1e252f" d="M260 1860 c-6 -11 -8 -20 -6 -20 3 0 10 9 16 20 6 11 8 20 6 20 -3 0
-10 -9 -16 -20z"/>
    <path fill="#1e252f" d="M560 1810 c-6 -11 -8 -20 -6 -20 3 0 10 9 16 20 6 11 8 20 6 20 -3 0
-10 -9 -16 -20z"/>
    <path fill="#1e252f" d="M854 1798 l-29 -33 33 29 c17 17 32 31 32 33 0 8 -8 1 -36 -29z"/>
    <path fill="#1e252f" d="M1790 1826 c0 -2 8 -10 18 -17 15 -13 16 -12 3 4 -13 16 -21 21 -21
13z"/>
    <path fill="#1e252f" d="M2090 1806 c0 -2 8 -10 18 -17 15 -13 16 -12 3 4 -13 16 -21 21 -21
13z"/>
    <path fill="#1e252f" d="M1890 1735 c30 -30 57 -55 59 -55 3 0 -19 25 -49 55 -30 30 -57 55
-59 55 -3 0 19 -25 49 -55z"/>
    <path fill="#1e252f" d="M206 1755 c-9 -26 -7 -32 5 -12 6 10 9 21 6 23 -2 3 -7 -2 -11 -11z"/>
    <path fill="#1e252f" d="M680 1750 c-6 -11 -8 -20 -6 -20 3 0 10 9 16 20 6 11 8 20 6 20 -3 0
-10 -9 -16 -20z"/>
    <path fill="#1e252f" d="M774 1718 l-29 -33 33 29 c17 17 32 31 32 33 0 8 -8 1 -36 -29z"/>
    <path fill="#1e252f" d="M1331 1495 l-255 -246 -65 64 c-141 136 -173 151 -225 105 -37 -34
-41 -67 -13 -108 47 -71 280 -351 299 -361 29 -16 64 -3 91 34 13 17 104 147
202 287 98 140 203 288 232 329 53 74 64 106 41 129 -29 29 -57 8 -307 -233z"/>
    <path fill="#1e252f" d="M506 1705 c-9 -26 -7 -32 5 -12 6 10 9 21 6 23 -2 3 -7 -2 -11 -11z"/>
    <path fill="#1e252f" d="M636 1665 c-9 -26 -7 -32 5 -12 6 10 9 21 6 23 -2 3 -7 -2 -11 -11z"/>
    <path fill="#1e252f" d="M729 1663 c-13 -16 -12 -17 4 -4 9 7 17 15 17 17 0 8 -8 3 -21 -13z"/>
    <path fill="#1e252f" d="M2190 1660 c6 -11 13 -20 16 -20 2 0 0 9 -6 20 -6 11 -13 20 -16 20
-2 0 0 -9 6 -20z"/>
    <path fill="#1e252f" d="M1950 1666 c0 -2 8 -10 18 -17 15 -13 16 -12 3 4 -13 16 -21 21 -21
13z"/>
    <path fill="#1e252f" d="M1995 1606 c10 -14 19 -26 22 -26 7 0 -17 39 -28 46 -6 3 -3 -5 6
-20z"/>
    <path fill="#1e252f" d="M471 1594 c0 -11 3 -14 6 -6 3 7 2 16 -1 19 -3 4 -6 -2 -5 -13z"/>
    <path fill="#1e252f" d="M2220 1605 c0 -5 5 -17 10 -25 5 -8 10 -10 10 -5 0 6 -5 17 -10 25
-5 8 -10 11 -10 5z"/>
    <path fill="#1e252f" d="M141 1564 c0 -11 3 -14 6 -6 3 7 2 16 -1 19 -3 4 -6 -2 -5 -13z"/>
    <path fill="#1e252f" d="M461 1554 c0 -11 3 -14 6 -6 3 7 2 16 -1 19 -3 4 -6 -2 -5 -13z"/>
    <path fill="#1e252f" d="M601 1554 c0 -11 3 -14 6 -6 3 7 2 16 -1 19 -3 4 -6 -2 -5 -13z"/>
    <path fill="#1e252f" d="M2030 1550 c6 -11 13 -20 16 -20 2 0 0 9 -6 20 -6 11 -13 20 -16 20
-2 0 0 -9 6 -20z"/>
    <path fill="#1e252f" d="M131 1524 c0 -11 3 -14 6 -6 3 7 2 16 -1 19 -3 4 -6 -2 -5 -13z"/>
    <path fill="#1e252f" d="M591 1514 c0 -11 3 -14 6 -6 3 7 2 16 -1 19 -3 4 -6 -2 -5 -13z"/>
    <path fill="#1e252f" d="M452 1500 c0 -14 2 -19 5 -12 2 6 2 18 0 25 -3 6 -5 1 -5 -13z"/>
    <path fill="#1e252f" d="M636 1495 c-9 -26 -7 -32 5 -12 6 10 9 21 6 23 -2 3 -7 -2 -11 -11z"/>
    <path fill="#1e252f" d="M122 1480 c0 -14 2 -19 5 -12 2 6 2 18 0 25 -3 6 -5 1 -5 -13z"/>
    <path fill="#1e252f" d="M2061 1495 c0 -5 6 -21 14 -35 8 -14 14 -20 14 -15 0 6 -6 21 -14 35
-8 14 -14 21 -14 15z"/>
    <path fill="#1e252f" d="M1775 1472 c-59 -14 -99 -71 -97 -142 0 -44 -2 -48 -99 -146 l-99
-101 0 -70 0 -70 -99 -89 c-54 -48 -113 -96 -130 -105 -17 -9 -27 -20 -23 -24
4 -5 -1 -5 -10 -2 -11 4 -17 2 -15 -5 3 -16 -115 -75 -176 -88 -72 -15 -206
-12 -268 6 -182 54 -351 207 -429 389 -31 72 -33 49 -5 -47 51 -180 120 -293
251 -417 100 -95 193 -153 301 -189 113 -37 265 -36 378 2 44 15 99 40 121 55
28 19 46 26 55 20 8 -5 31 -9 53 -9 30 0 45 7 71 33 40 40 51 77 37 123 l-10
34 100 94 c98 92 100 93 142 89 124 -14 181 118 93 214 -69 76 -205 2 -194
-104 l5 -43 -106 -97 c-91 -85 -110 -98 -143 -100 -69 -3 -109 -44 -119 -123
-4 -39 -10 -47 -45 -67 -57 -32 -176 -57 -244 -50 -58 5 -171 36 -171 46 0 3
33 7 73 7 77 1 149 25 214 69 20 13 112 95 204 181 l169 157 0 74 0 75 87 82
87 83 62 -5 c59 -4 62 -3 96 31 47 46 55 92 29 151 -25 57 -90 92 -146 78z
m75 -112 c10 -20 4 -50 -14 -62 -41 -28 -95 18 -77 65 16 42 68 40 91 -3z m14
-393 c22 -16 18 -55 -6 -71 -40 -24 -80 44 -42 71 10 7 21 13 24 13 3 0 14 -6
24 -13z m-348 -393 c7 -28 -10 -54 -35 -54 -43 0 -58 64 -18 79 30 11 46 4 53
-25z"/>
    <path fill="#1e252f" d="M582 1450 c0 -14 2 -19 5 -12 2 6 2 18 0 25 -3 6 -5 1 -5 -13z"/>
    <path fill="#1e252f" d="M112 1420 c0 -19 2 -27 5 -17 2 9 2 25 0 35 -3 9 -5 1 -5 -18z"/>
    <path fill="#1e252f" d="M444 1355 c0 -55 1 -76 3 -47 2 29 2 74 0 100 -2 26 -3 2 -3 -53z"/>
    <path fill="#1e252f" d="M2281 1424 c0 -11 3 -14 6 -6 3 7 2 16 -1 19 -3 4 -6 -2 -5 -13z"/>
    <path fill="#1e252f" d="M2291 1374 c0 -11 3 -14 6 -6 3 7 2 16 -1 19 -3 4 -6 -2 -5 -13z"/>
    <path fill="#1e252f" d="M601 1364 c0 -11 3 -14 6 -6 3 7 2 16 -1 19 -3 4 -6 -2 -5 -13z"/>
    <path fill="#1e252f" d="M2111 1354 c0 -11 3 -14 6 -6 3 7 2 16 -1 19 -3 4 -6 -2 -5 -13z"/>
    <path fill="#1e252f" d="M104 1260 c0 -58 1 -81 3 -52 2 28 2 76 0 105 -2 28 -3 5 -3 -53z"/>
    <path fill="#1e252f" d="M585 1285 c-3 -26 -4 -49 -2 -52 3 -3 9 16 12 42 4 25 5 48 2 51 -2
3 -8 -16 -12 -41z"/>
    <path fill="#1e252f" d="M2121 1314 c0 -11 3 -14 6 -6 3 7 2 16 -1 19 -3 4 -6 -2 -5 -13z"/>
    <path fill="#1e252f" d="M2303 1280 c0 -25 2 -35 4 -22 2 12 2 32 0 45 -2 12 -4 2 -4 -23z"/>
    <path fill="#1e252f" d="M2132 1260 c0 -14 2 -19 5 -12 2 6 2 18 0 25 -3 6 -5 1 -5 -13z"/>
    <path fill="#1e252f" d="M452 1220 c0 -14 2 -19 5 -12 2 6 2 18 0 25 -3 6 -5 1 -5 -13z"/>
    <path fill="#1e252f" d="M2143 1165 c0 -27 2 -38 4 -22 2 15 2 37 0 50 -2 12 -4 0 -4 -28z"/>
    <path fill="#1e252f" d="M461 1164 c0 -11 3 -14 6 -6 3 7 2 16 -1 19 -3 4 -6 -2 -5 -13z"/>
    <path fill="#1e252f" d="M2303 1115 c0 -27 2 -38 4 -22 2 15 2 37 0 50 -2 12 -4 0 -4 -28z"/>
    <path fill="#1e252f" d="M112 1110 c0 -14 2 -19 5 -12 2 6 2 18 0 25 -3 6 -5 1 -5 -13z"/>
    <path fill="#1e252f" d="M2143 1055 c0 -27 2 -38 4 -22 2 15 2 37 0 50 -2 12 -4 0 -4 -28z"/>
    <path fill="#1e252f" d="M122 1040 c0 -14 2 -19 5 -12 2 6 2 18 0 25 -3 6 -5 1 -5 -13z"/>
    <path fill="#1e252f" d="M2292 1020 c0 -14 2 -19 5 -12 2 6 2 18 0 25 -3 6 -5 1 -5 -13z"/>
    <path fill="#1e252f" d="M131 994 c0 -11 3 -14 6 -6 3 7 2 16 -1 19 -3 4 -6 -2 -5 -13z"/>
    <path fill="#1e252f" d="M2132 960 c0 -14 2 -19 5 -12 2 6 2 18 0 25 -3 6 -5 1 -5 -13z"/>
    <path fill="#1e252f" d="M2281 964 c0 -11 3 -14 6 -6 3 7 2 16 -1 19 -3 4 -6 -2 -5 -13z"/>
    <path fill="#1e252f" d="M141 954 c0 -11 3 -14 6 -6 3 7 2 16 -1 19 -3 4 -6 -2 -5 -13z"/>
    <path fill="#1e252f" d="M2271 924 c0 -11 3 -14 6 -6 3 7 2 16 -1 19 -3 4 -6 -2 -5 -13z"/>
    <path fill="#1e252f" d="M2121 904 c0 -11 3 -14 6 -6 3 7 2 16 -1 19 -3 4 -6 -2 -5 -13z"/>
    <path fill="#1e252f" d="M635 850 c33 -33 62 -60 64 -60 3 0 -21 27 -54 60 -33 33 -62 60 -64
60 -3 0 21 -27 54 -60z"/>
    <path fill="#1e252f" d="M161 890 c0 -8 4 -22 9 -30 12 -18 12 -2 0 25 -6 13 -9 15 -9 5z"/>
    <path fill="#1e252f" d="M2261 884 c0 -11 3 -14 6 -6 3 7 2 16 -1 19 -3 4 -6 -2 -5 -13z"/>
    <path fill="#1e252f" d="M2226 785 c-9 -26 -7 -32 5 -12 6 10 9 21 6 23 -2 3 -7 -2 -11 -11z"/>
    <path fill="#1e252f" d="M200 785 c0 -5 5 -17 10 -25 5 -8 10 -10 10 -5 0 6 -5 17 -10 25 -5
8 -10 11 -10 5z"/>
    <path fill="#1e252f" d="M740 765 c0 -7 81 -47 86 -43 2 3 -17 14 -41 26 -25 12 -45 20 -45
17z"/>
    <path fill="#1e252f" d="M245 690 c9 -16 18 -30 21 -30 2 0 -2 14 -11 30 -9 17 -18 30 -21 30
-2 0 2 -13 11 -30z"/>
    <path fill="#1e252f" d="M2186 693 c-6 -14 -5 -15 5 -6 7 7 10 15 7 18 -3 3 -9 -2 -12 -12z"/>
    <path fill="#1e252f" d="M918 693 c7 -3 16 -2 19 1 4 3 -2 6 -13 5 -11 0 -14 -3 -6 -6z"/>
    <path fill="#1e252f" d="M1098 693 c6 -2 18 -2 25 0 6 3 1 5 -13 5 -14 0 -19 -2 -12 -5z"/>
    <path fill="#1e252f" d="M993 683 c15 -2 39 -2 55 0 15 2 2 4 -28 4 -30 0 -43 -2 -27 -4z"/>
    <path fill="#1e252f" d="M280 630 c6 -11 13 -20 16 -20 2 0 0 9 -6 20 -6 11 -13 20 -16 20 -2
0 0 -9 6 -20z"/>
    <path fill="#1e252f" d="M2150 630 c-6 -11 -8 -20 -6 -20 3 0 10 9 16 20 6 11 8 20 6 20 -3 0
-10 -9 -16 -20z"/>
    <path fill="#1e252f" d="M2000 600 c-6 -11 -8 -20 -6 -20 3 0 10 9 16 20 6 11 8 20 6 20 -3 0
-10 -9 -16 -20z"/>
    <path fill="#1e252f" d="M330 558 c18 -25 46 -59 63 -75 22 -21 20 -15 -11 22 -77 93 -84 100
-52 53z"/>
    <path fill="#1e252f" d="M2115 574 c-9 -15 -12 -23 -6 -20 11 7 35 46 28 46 -3 0 -12 -12 -22
-26z"/>
    <path fill="#1e252f" d="M1955 528 c-16 -24 -22 -38 -14 -31 15 12 53 73 46 73 -2 0 -17 -19
-32 -42z"/>
    <path fill="#1e252f" d="M1813 528 c-15 -20 -25 -38 -20 -38 3 0 12 11 21 25 17 26 16 35 -1
13z"/>
    <path fill="#1e252f" d="M2055 493 c-21 -27 -28 -39 -16 -28 23 19 66 75 59 75 -2 0 -21 -21
-43 -47z"/>
    <path fill="#1e252f" d="M1739 463 l-24 -28 28 24 c25 23 32 31 24 31 -2 0 -14 -12 -28 -27z"/>
    <path fill="#1e252f" d="M1759 453 l-24 -28 28 24 c15 14 27 26 27 28 0 8 -8 1 -31 -24z"/>
    <path fill="#1e252f" d="M1909 463 c-13 -16 -12 -17 4 -4 16 13 21 21 13 21 -2 0 -10 -8 -17
-17z"/>
    <path fill="#1e252f" d="M465 410 c21 -22 41 -40 44 -40 3 0 -13 18 -34 40 -21 22 -41 40 -44
40 -3 0 13 -18 34 -40z"/>
    <path fill="#1e252f" d="M1689 423 c-13 -16 -12 -17 4 -4 16 13 21 21 13 21 -2 0 -10 -8 -17
-17z"/>
    <path fill="#1e252f" d="M1874 418 l-19 -23 23 19 c21 18 27 26 19 26 -2 0 -12 -10 -23 -22z"/>
    <path fill="#1e252f" d="M1979 403 l-34 -38 38 34 c20 19 37 36 37 38 0 8 -8 0 -41 -34z"/>
    <path fill="#1e252f" d="M1570 355 c-25 -13 -41 -24 -37 -25 11 0 87 39 87 45 0 7 0 7 -50
-20z"/>
    <path fill="#1e252f" d="M1805 338 l-40 -43 43 40 c23 21 42 40 42 42 0 8 -9 0 -45 -39z"/>
    <path fill="#1e252f" d="M1649 343 l-24 -28 28 24 c25 23 32 31 24 31 -2 0 -14 -12 -28 -27z"/>
    <path fill="#1e252f" d="M530 356 c0 -2 14 -14 30 -26 17 -12 30 -19 30 -16 0 2 -13 14 -30
26 -16 12 -30 19 -30 16z"/>
    <path fill="#1e252f" d="M1899 333 l-24 -28 28 24 c25 23 32 31 24 31 -2 0 -14 -12 -28 -27z"/>
    <path fill="#1e252f" d="M900 342 c8 -5 26 -13 40 -16 17 -5 20 -4 10 2 -8 5 -26 13 -40 16
-17 5 -20 4 -10 -2z"/>
    <path fill="#1e252f" d="M600 306 c0 -3 9 -10 20 -16 11 -6 20 -8 20 -6 0 3 -9 10 -20 16 -11
6 -20 8 -20 6z"/>
    <path fill="#1e252f" d="M1008 303 c7 -3 16 -2 19 1 4 3 -2 6 -13 5 -11 0 -14 -3 -6 -6z"/>
    <path fill="#1e252f" d="M1835 284 l-30 -26 33 22 c17 12 32 23 32 26 0 7 -4 5 -35 -22z"/>
    <path fill="#1e252f" d="M1048 293 c7 -3 16 -2 19 1 4 3 -2 6 -13 5 -11 0 -14 -3 -6 -6z"/>
    <path fill="#1e252f" d="M1408 293 c7 -3 16 -2 19 1 4 3 -2 6 -13 5 -11 0 -14 -3 -6 -6z"/>
    <path fill="#1e252f" d="M1108 283 c7 -3 16 -2 19 1 4 3 -2 6 -13 5 -11 0 -14 -3 -6 -6z"/>
    <path fill="#1e252f" d="M1358 283 c7 -3 16 -2 19 1 4 3 -2 6 -13 5 -11 0 -14 -3 -6 -6z"/>
    <path fill="#1e252f" d="M1724 268 l-19 -23 23 19 c21 18 27 26 19 26 -2 0 -12 -10 -23 -22z"/>
    <path fill="#1e252f" d="M1208 273 c17 -2 47 -2 65 0 17 2 3 4 -33 4 -36 0 -50 -2 -32 -4z"/>
    <path fill="#1e252f" d="M1774 244 c-18 -14 -18 -15 4 -4 12 6 22 13 22 15 0 8 -5 6 -26 -11z"/>
    <path fill="#1e252f" d="M1679 233 c-13 -16 -12 -17 4 -4 16 13 21 21 13 21 -2 0 -10 -8 -17
-17z"/>
    <path fill="#1e252f" d="M1690 200 c-30 -16 -51 -29 -47 -30 10 0 107 49 107 55 0 7 1 7 -60
-25z"/>
    <path fill="#1e252f" d="M1420 210 c-8 -5 -10 -10 -5 -10 6 0 17 5 25 10 8 5 11 10 5 10 -5 0
-17 -5 -25 -10z"/>
    <path fill="#1e252f" d="M1604 184 c-18 -14 -18 -15 4 -4 12 6 22 13 22 15 0 8 -5 6 -26 -11z"/>
    <path fill="#1e252f" d="M1348 183 c7 -3 16 -2 19 1 4 3 -2 6 -13 5 -11 0 -14 -3 -6 -6z"/>
    <path fill="#1e252f" d="M918 173 c7 -3 16 -2 19 1 4 3 -2 6 -13 5 -11 0 -14 -3 -6 -6z"/>
    <path fill="#1e252f" d="M1308 173 c7 -3 16 -2 19 1 4 3 -2 6 -13 5 -11 0 -14 -3 -6 -6z"/>
    <path fill="#1e252f" d="M968 163 c6 -2 18 -2 25 0 6 3 1 5 -13 5 -14 0 -19 -2 -12 -5z"/>
    <path fill="#1e252f" d="M1248 163 c6 -2 18 -2 25 0 6 3 1 5 -13 5 -14 0 -19 -2 -12 -5z"/>
    <path fill="#1e252f" d="M1073 153 c26 -2 67 -2 90 0 23 2 2 3 -48 3 -49 0 -68 -1 -42 -3z"/>
    <path fill="#1e252f" d="M1537 139 c7 -7 15 -10 18 -7 3 3 -2 9 -12 12 -14 6 -15 5 -6 -5z"/>
    <path fill="#1e252f" d="M1470 119 c-53 -21 -43 -24 19 -5 24 7 40 15 35 18 -5 3 -29 -2 -54
-13z"/>
    <path fill="#507296" filter="url(#electricGlow) url(#electricCrackle)" d="M1042 2405 c-159 -29 -308 -88 -435 -172 -148 -98 -308 -276 -384
-426 -54 -108 -105 -270 -98 -315 4 -28 3 -32 -5 -17 -7 15 -8 5 -5 -35 3 -34
2 -44 -3 -26 -6 25 -8 -284 -2 -364 1 -23 2 -24 11 -5 7 15 8 12 4 -14 -6 -42
24 -159 36 -139 6 9 9 9 9 1 0 -6 3 -20 6 -30 5 -15 4 -16 -6 -3 -9 12 -10 10
-4 -10 13 -49 73 -169 119 -242 53 -81 223 -261 241 -254 6 2 24 -7 40 -21
l29 -25 -35 22 -35 22 30 -27 c50 -44 243 -133 340 -157 69 -17 121 -22 220
-22 138 -1 260 18 234 36 -10 6 -5 8 16 4 17 -3 37 -2 45 4 8 5 11 10 5 10
-13 0 17 20 30 20 6 0 3 -5 -5 -10 -30 -19 2 -9 53 16 67 34 159 97 177 120 8
11 2 9 -15 -6 l-30 -25 24 27 c13 15 29 24 35 22 7 -3 19 3 27 12 12 15 12 17
0 9 -10 -5 -12 -4 -7 4 4 6 11 9 16 6 11 -7 33 22 26 34 -4 5 -1 13 5 17 8 5
9 3 4 -7 -7 -11 -5 -11 10 1 24 20 117 161 110 168 -5 5 -40 -37 -39 -48 0 -5
-98 -89 -163 -139 -15 -13 -22 -19 -14 -15 9 5 12 3 7 -5 -4 -6 -11 -9 -16 -6
-5 3 -35 -8 -67 -24 -120 -60 -194 -76 -348 -75 -101 0 -158 5 -203 17 -34 10
-67 15 -71 12 -5 -2 -23 0 -41 6 -23 8 -28 14 -19 20 15 9 18 7 -61 34 -171
59 -383 265 -465 450 -30 66 -78 226 -70 233 2 3 14 -17 25 -43 79 -184 248
-336 435 -390 87 -26 248 -17 331 17 71 29 137 72 127 81 -3 4 0 7 8 7 8 0 28
11 44 25 28 23 26 22 -25 -5 -146 -77 -314 -79 -461 -5 -27 14 -54 23 -59 20
-5 -3 -12 0 -16 6 -5 8 -3 9 7 4 17 -10 15 -7 -71 70 l-65 59 60 -64 60 -65
-62 59 c-34 32 -60 64 -57 70 2 6 -6 22 -17 36 -11 14 -17 19 -13 11 5 -9 3
-12 -5 -7 -6 4 -9 11 -6 16 8 13 -27 80 -38 73 -6 -3 -7 -1 -3 5 4 6 -3 42
-15 79 -30 97 -38 290 -15 404 10 46 29 112 42 146 14 35 22 68 18 75 -4 7 -4
10 1 6 4 -4 32 32 62 80 30 48 70 103 90 124 22 22 32 41 28 49 -5 8 -4 10 3
5 7 -4 30 10 54 32 96 88 261 175 388 204 37 9 47 14 34 18 -10 4 76 7 191 7
115 0 201 -4 190 -8 -19 -7 -19 -8 1 -8 40 -2 158 -42 238 -82 43 -21 82 -37
86 -34 5 3 12 0 16 -6 5 -8 3 -9 -7 -4 -26 15 5 -11 61 -50 30 -22 90 -73 133
-114 73 -70 96 -83 61 -33 -8 12 -19 20 -23 17 -5 -2 -16 4 -26 15 -20 22 -7
28 15 8 34 -32 -34 53 -86 108 -33 33 -43 42 -24 19 19 -23 7 -12 -28 24 -34
36 -68 66 -75 66 -7 0 -29 16 -48 36 -68 67 -257 146 -418 174 -102 18 -309
18 -409 0z m116 -2 c-10 -2 -26 -2 -35 0 -10 3 -2 5 17 5 19 0 27 -2 18 -5z
m220 0 c-10 -2 -28 -2 -40 0 -13 2 -5 4 17 4 22 1 32 -1 23 -4z m-305 -10 c-7
-2 -19 -2 -25 0 -7 3 -2 5 12 5 14 0 19 -2 13 -5z m380 0 c-7 -2 -19 -2 -25 0
-7 3 -2 5 12 5 14 0 19 -2 13 -5z m-436 -9 c-3 -3 -12 -4 -19 -1 -8 3 -5 6 6
6 11 1 17 -2 13 -5z m490 0 c-3 -3 -12 -4 -19 -1 -8 3 -5 6 6 6 11 1 17 -2 13
-5z m40 -10 c-3 -3 -12 -4 -19 -1 -8 3 -5 6 6 6 11 1 17 -2 13 -5z m-717 -44
c-8 -5 -19 -10 -25 -10 -5 0 -3 5 5 10 8 5 20 10 25 10 6 0 3 -5 -5 -10z m-41
-14 c-10 -9 -129 -66 -129 -61 0 6 111 64 124 65 5 0 7 -2 5 -4z m961 -16 c22
-11 40 -23 40 -25 0 -5 -79 32 -89 41 -11 10 14 2 49 -16z m-333 -7 c-20 -2
-52 -2 -70 0 -17 2 0 4 38 4 39 0 53 -2 32 -4z m-150 -9 c-3 -3 -12 -4 -19 -1
-8 3 -5 6 6 6 11 1 17 -2 13 -5z m256 -1 c-7 -2 -19 -2 -25 0 -7 3 -2 5 12 5
14 0 19 -2 13 -5z m-356 -19 c-3 -3 -12 -4 -19 -1 -8 3 -5 6 6 6 11 1 17 -2
13 -5z m-517 -18 c0 -2 -18 -15 -40 -30 -22 -14 -40 -24 -40 -22 0 5 71 56 77
56 2 0 3 -2 3 -4z m360 -36 c-8 -5 -19 -10 -25 -10 -5 0 -3 5 5 10 8 5 20 10
25 10 6 0 3 -5 -5 -10z m780 0 c8 -5 11 -10 5 -10 -5 0 -17 5 -25 10 -8 5 -10
10 -5 10 6 0 17 -5 25 -10z m-1230 -24 c0 -2 -8 -10 -17 -17 -16 -13 -17 -12
-4 4 13 16 21 21 21 13z m390 -1 c0 -2 -10 -9 -22 -15 -22 -11 -22 -10 -4 4
21 17 26 19 26 11z m920 -21 c0 -2 -9 0 -20 6 -11 6 -20 13 -20 16 0 2 9 0 20
-6 11 -6 20 -13 20 -16z m75 6 c10 -11 16 -20 13 -20 -3 0 -13 9 -23 20 -10
11 -16 20 -13 20 3 0 13 -9 23 -20z m-1425 -13 c0 -1 -37 -38 -82 -82 l-83
-80 80 83 c74 76 85 87 85 79z m380 -2 c0 -2 -10 -9 -22 -15 -22 -11 -22 -10
-4 4 21 17 26 19 26 11z m-50 -29 c0 -2 -8 -10 -17 -17 -16 -13 -17 -12 -4 4
13 16 21 21 21 13z m1131 -33 c13 -16 12 -17 -3 -4 -10 7 -18 15 -18 17 0 8 8
3 21 -13z m-1171 4 c0 -2 -15 -16 -32 -33 l-33 -29 29 33 c28 30 36 37 36 29z
m1211 -34 c13 -16 12 -17 -3 -4 -10 7 -18 15 -18 17 0 8 8 3 21 -13z m70 -39
c11 -12 16 -24 11 -28 -5 -3 -21 7 -36 23 -19 19 -22 28 -11 28 8 0 24 -10 36
-23z m-1731 -38 c0 -2 -8 -10 -17 -17 -16 -13 -17 -12 -4 4 13 16 21 21 21 13z
m340 1 c0 -2 -12 -14 -27 -28 l-28 -24 24 28 c23 25 31 32 31 24z m-370 -41
c0 -2 -8 -10 -17 -17 -16 -13 -17 -12 -4 4 13 16 21 21 21 13z m284 -66 c-15
-22 -29 -40 -31 -40 -5 0 3 15 29 53 30 43 31 32 2 -13z m-344 -20 c-6 -11
-13 -20 -16 -20 -2 0 0 9 6 20 6 11 13 20 16 20 2 0 0 -9 -6 -20z m300 -50
c-6 -11 -13 -20 -16 -20 -2 0 0 9 6 20 6 11 13 20 16 20 2 0 0 -9 -6 -20z
m-359 -67 c-12 -20 -14 -14 -5 12 4 9 9 14 11 11 3 -2 0 -13 -6 -23z m300 -50
c-12 -20 -14 -14 -5 12 4 9 9 14 11 11 3 -2 0 -13 -6 -23z m-34 -105 c-3 -8
-6 -5 -6 6 -1 11 2 17 5 13 3 -3 4 -12 1 -19z m-330 -30 c-3 -8 -6 -5 -6 6 -1
11 2 17 5 13 3 -3 4 -12 1 -19z m320 -10 c-3 -8 -6 -5 -6 6 -1 11 2 17 5 13 3
-3 4 -12 1 -19z m-330 -30 c-3 -8 -6 -5 -6 6 -1 11 2 17 5 13 3 -3 4 -12 1
-19z m320 -30 c-3 -7 -5 -2 -5 12 0 14 2 19 5 13 2 -7 2 -19 0 -25z m-10 -180
c-2 -29 -3 -8 -3 47 0 55 1 79 3 53 2 -26 2 -71 0 -100z m10 -100 c-3 -7 -5
-2 -5 12 0 14 2 19 5 13 2 -7 2 -19 0 -25z m10 -50 c-3 -8 -6 -5 -6 6 -1 11 2
17 5 13 3 -3 4 -12 1 -19z m-350 -60 c-3 -7 -5 -2 -5 12 0 14 2 19 5 13 2 -7
2 -19 0 -25z m20 -110 c-3 -8 -6 -5 -6 6 -1 11 2 17 5 13 3 -3 4 -12 1 -19z
m10 -40 c-3 -8 -6 -5 -6 6 -1 11 2 17 5 13 3 -3 4 -12 1 -19z m73 -193 c0 -5
-5 -3 -10 5 -5 8 -10 20 -10 25 0 6 5 3 10 -5 5 -8 10 -19 10 -25z m606 -33
c-5 -4 -86 36 -86 43 0 3 20 -5 45 -17 24 -12 43 -23 41 -26z m-571 -32 c9
-16 13 -30 11 -30 -3 0 -12 14 -21 30 -9 17 -13 30 -11 30 3 0 12 -13 21 -30z
m682 4 c-3 -3 -12 -4 -19 -1 -8 3 -5 6 6 6 11 1 17 -2 13 -5z m186 -1 c-7 -2
-19 -2 -25 0 -7 3 -2 5 12 5 14 0 19 -2 13 -5z m-75 -10 c-16 -2 -40 -2 -55 0
-16 2 -3 4 27 4 30 0 43 -2 28 -4z m-758 -53 c6 -11 8 -20 6 -20 -3 0 -10 9
-16 20 -6 11 -8 20 -6 20 3 0 10 -9 16 -20z m92 -125 c31 -37 33 -43 11 -22
-17 16 -45 50 -63 75 -32 47 -25 40 52 -53z m1432 10 c-9 -14 -18 -25 -21 -25
-5 0 5 18 20 38 17 22 18 13 1 -13z m-44 -28 c0 -2 -12 -14 -27 -28 l-28 -24
24 28 c23 25 31 32 31 24z m20 -11 c0 -2 -8 -10 -17 -17 -16 -13 -17 -12 -4 4
13 16 21 21 21 13z m-1315 -66 c21 -22 37 -40 34 -40 -3 0 -23 18 -44 40 -21
22 -37 40 -34 40 3 0 23 -18 44 -40z m1235 26 c0 -2 -8 -10 -17 -17 -16 -13
-17 -12 -4 4 13 16 21 21 21 13z m-90 -61 c0 -6 -76 -45 -87 -45 -4 1 12 12
37 25 50 27 50 27 50 20z m-980 -91 c0 -2 -9 0 -20 6 -11 6 -20 13 -20 16 0 2
9 0 20 -6 11 -6 20 -13 20 -16z m387 20 c-3 -3 -12 -4 -19 -1 -8 3 -5 6 6 6
11 1 17 -2 13 -5z m40 -10 c-3 -3 -12 -4 -19 -1 -8 3 -5 6 6 6 11 1 17 -2 13
-5z m360 0 c-3 -3 -12 -4 -19 -1 -8 3 -5 6 6 6 11 1 17 -2 13 -5z m-300 -10
c-3 -3 -12 -4 -19 -1 -8 3 -5 6 6 6 11 1 17 -2 13 -5z m250 0 c-3 -3 -12 -4
-19 -1 -8 3 -5 6 6 6 11 1 17 -2 13 -5z m-104 -11 c-18 -2 -48 -2 -65 0 -18 2
-4 4 32 4 36 0 50 -2 33 -4z m-336 -99 c-3 -3 -12 -4 -19 -1 -8 3 -5 6 6 6 11
1 17 -2 13 -5z m390 0 c-3 -3 -12 -4 -19 -1 -8 3 -5 6 6 6 11 1 17 -2 13 -5z
m-334 -11 c-7 -2 -19 -2 -25 0 -7 3 -2 5 12 5 14 0 19 -2 13 -5z m280 0 c-7
-2 -19 -2 -25 0 -7 3 -2 5 12 5 14 0 19 -2 13 -5z m-110 -10 c-23 -2 -64 -2
-90 0 -26 2 -7 3 42 3 50 0 71 -1 48 -3z"/>
    <path fill="#507296" filter="url(#electricGlow) url(#electricCrackle)" d="M2075 2020 c10 -11 20 -20 23 -20 3 0 -3 9 -13 20 -10 11 -20 20 -23
20 -3 0 3 -9 13 -20z"/>
    <path fill="#507296" filter="url(#electricGlow) url(#electricCrackle)" d="M1258 2160 c-185 -34 -334 -115 -468 -257 -156 -164 -221 -332 -218
-559 1 -108 1 -109 14 -59 6 28 13 40 13 27 1 -13 -4 -42 -10 -65 -6 -26 -7
-51 -1 -67 7 -19 10 -5 16 65 6 81 24 176 41 230 6 16 5 17 -4 5 -6 -8 -11
-10 -11 -5 0 14 20 42 20 30 1 -5 14 16 31 48 16 32 27 62 24 67 -3 5 0 12 6
16 8 5 9 3 4 -6 -6 -9 -4 -11 4 -6 7 5 10 14 7 21 -3 8 3 19 12 27 16 12 16
11 2 -7 -18 -25 -12 -19 80 80 41 44 59 67 40 50 l-35 -30 29 32 c16 18 33 30
38 27 4 -3 20 3 36 14 196 139 490 162 720 56 40 -18 86 -42 102 -54 16 -12
34 -19 39 -16 5 3 15 -2 22 -12 13 -16 12 -16 -6 -2 -20 15 -20 15 -1 -8 11
-12 25 -21 32 -18 6 2 36 -21 65 -52 l54 -57 -59 55 -60 55 61 -67 c34 -37 84
-104 112 -150 28 -45 51 -78 51 -73 1 13 29 -37 29 -50 0 -5 -7 1 -15 15 -10
16 -13 18 -8 5 45 -125 57 -187 61 -315 4 -105 1 -154 -12 -220 -10 -47 -18
-97 -18 -112 0 -15 -3 -25 -7 -23 -11 7 -43 -83 -34 -96 4 -7 3 -9 -3 -6 -6 4
-16 -6 -22 -21 -22 -47 -103 -174 -148 -229 -24 -30 -42 -57 -39 -62 6 -10
-68 -84 -76 -75 -4 3 -31 -15 -61 -39 -74 -60 -172 -114 -271 -149 -44 -16
-67 -28 -51 -26 17 1 35 6 42 11 7 5 22 6 35 2 16 -4 19 -3 10 3 -11 7 -6 12
17 20 19 7 33 7 36 1 4 -5 -4 -10 -17 -10 -16 -1 -18 -3 -6 -6 44 -11 308 123
389 199 19 18 24 24 10 13 l-26 -20 24 27 c13 15 29 24 36 22 15 -6 141 132
137 150 -1 7 6 20 15 27 16 12 17 12 8 -1 -5 -9 0 -4 13 10 29 32 90 138 125
218 46 103 78 245 73 327 -3 54 -2 61 4 30 5 -25 7 16 5 110 -4 175 -23 263
-85 391 -123 255 -364 457 -625 524 -89 24 -272 34 -347 20z m175 -7 c-23 -2
-64 -2 -90 0 -26 2 -7 3 42 3 50 0 71 -1 48 -3z m-170 -10 c-7 -2 -19 -2 -25
0 -7 3 -2 5 12 5 14 0 19 -2 13 -5z m270 0 c-7 -2 -19 -2 -25 0 -7 3 -2 5 12
5 14 0 19 -2 13 -5z m54 -9 c-3 -3 -12 -4 -19 -1 -8 3 -5 6 6 6 11 1 17 -2 13
-5z m40 -10 c-3 -3 -12 -4 -19 -1 -8 3 -5 6 6 6 11 1 17 -2 13 -5z m103 -34
c8 -5 11 -10 5 -10 -5 0 -17 5 -25 10 -8 5 -10 10 -5 10 6 0 17 -5 25 -10z
m120 -66 c0 -2 -9 0 -20 6 -11 6 -20 13 -20 16 0 2 9 0 20 -6 11 -6 20 -13 20
-16z m-930 -17 c0 -1 -21 -20 -47 -41 l-48 -38 44 41 c40 38 51 46 51 38z
m468 -34 c-26 -2 -71 -2 -100 0 -29 2 -8 3 47 3 55 0 79 -1 53 -3z m557 -13
c10 -11 16 -20 13 -20 -3 0 -13 9 -23 20 -10 11 -16 20 -13 20 3 0 13 -9 23
-20z m-738 4 c-3 -3 -12 -4 -19 -1 -8 3 -5 6 6 6 11 1 17 -2 13 -5z m276 -1
c-7 -2 -19 -2 -25 0 -7 3 -2 5 12 5 14 0 19 -2 13 -5z m-316 -9 c-3 -3 -12 -4
-19 -1 -8 3 -5 6 6 6 11 1 17 -2 13 -5z m360 0 c-3 -3 -12 -4 -19 -1 -8 3 -5
6 6 6 11 1 17 -2 13 -5z m40 -10 c-3 -3 -12 -4 -19 -1 -8 3 -5 6 6 6 11 1 17
-2 13 -5z m43 -14 c8 -5 11 -10 5 -10 -5 0 -17 5 -25 10 -8 5 -10 10 -5 10 6
0 17 -5 25 -10z m420 -45 c30 -30 52 -55 49 -55 -2 0 -29 25 -59 55 -30 30
-52 55 -49 55 2 0 29 -25 59 -55z m-980 30 c-14 -8 -29 -14 -35 -14 -5 0 1 6
15 14 14 8 30 14 35 14 6 0 -1 -6 -15 -14z m-270 -42 c-54 -61 -68 -73 -50
-48 17 25 83 95 88 95 3 0 -15 -21 -38 -47z m910 22 c17 -9 30 -18 30 -21 0
-4 -59 23 -69 32 -10 9 13 3 39 -11z m-690 0 c0 -2 -10 -9 -22 -15 -22 -11
-22 -10 -4 4 21 17 26 19 26 11z m1111 -102 c13 -16 12 -17 -3 -4 -10 7 -18
15 -18 17 0 8 8 3 21 -13z m-1421 -43 c-6 -11 -13 -20 -16 -20 -2 0 0 9 6 20
6 11 13 20 16 20 2 0 0 -9 -6 -20z m120 -3 c0 -2 -15 -16 -32 -33 l-33 -29 29
33 c28 30 36 37 36 29z m-169 -94 c-12 -20 -14 -14 -5 12 4 9 9 14 11 11 3 -2
0 -13 -6 -23z m1559 7 c6 -11 8 -20 6 -20 -3 0 -10 9 -16 20 -6 11 -8 20 -6
20 3 0 10 -9 16 -20z m-229 -7 c13 -16 12 -17 -3 -4 -10 7 -18 15 -18 17 0 8
8 3 21 -13z m39 -54 c15 -28 5 -23 -15 7 -9 15 -12 23 -6 20 6 -4 16 -16 21
-27z m230 -24 c0 -5 -5 -3 -10 5 -5 8 -10 20 -10 25 0 6 5 3 10 -5 5 -8 10
-19 10 -25z m-1633 -27 c-3 -8 -6 -5 -6 6 -1 11 2 17 5 13 3 -3 4 -12 1 -19z
m1433 2 c6 -11 8 -20 6 -20 -3 0 -10 9 -16 20 -6 11 -8 20 -6 20 3 0 10 -9 16
-20z m-1443 -42 c-3 -8 -6 -5 -6 6 -1 11 2 17 5 13 3 -3 4 -12 1 -19z m-10
-70 c-3 -7 -5 -2 -5 12 0 14 2 19 5 13 2 -7 2 -19 0 -25z m1700 -20 c-3 -8 -6
-5 -6 6 -1 11 2 17 5 13 3 -3 4 -12 1 -19z m10 -50 c-3 -8 -6 -5 -6 6 -1 11 2
17 5 13 3 -3 4 -12 1 -19z m-1690 -10 c-3 -8 -6 -5 -6 6 -1 11 2 17 5 13 3 -3
4 -12 1 -19z m1510 -10 c-3 -8 -6 -5 -6 6 -1 11 2 17 5 13 3 -3 4 -12 1 -19z
m10 -40 c-3 -8 -6 -5 -6 6 -1 11 2 17 5 13 3 -3 4 -12 1 -19z m180 -50 c-2
-13 -4 -3 -4 22 0 25 2 35 4 23 2 -13 2 -33 0 -45z m-170 -10 c-3 -7 -5 -2 -5
12 0 14 2 19 5 13 2 -7 2 -19 0 -25z m10 -105 c-2 -16 -4 -5 -4 22 0 28 2 40
4 28 2 -13 2 -35 0 -50z m0 -110 c-2 -16 -4 -5 -4 22 0 28 2 40 4 28 2 -13 2
-35 0 -50z m150 -25 c-3 -7 -5 -2 -5 12 0 14 2 19 5 13 2 -7 2 -19 0 -25z
m-160 -60 c-3 -7 -5 -2 -5 12 0 14 2 19 5 13 2 -7 2 -19 0 -25z m150 10 c-3
-8 -6 -5 -6 6 -1 11 2 17 5 13 3 -3 4 -12 1 -19z m-10 -40 c-3 -8 -6 -5 -6 6
-1 11 2 17 5 13 3 -3 4 -12 1 -19z m-150 -20 c-3 -8 -6 -5 -6 6 -1 11 2 17 5
13 3 -3 4 -12 1 -19z m140 -20 c-3 -8 -6 -5 -6 6 -1 11 2 17 5 13 3 -3 4 -12
1 -19z m-36 -105 c-12 -20 -14 -14 -5 12 4 9 9 14 11 11 3 -2 0 -13 -6 -23z
m-40 -86 c-10 -9 -11 -8 -5 6 3 10 9 15 12 12 3 -3 0 -11 -7 -18z m-31 -57
c-6 -11 -13 -20 -16 -20 -2 0 0 9 6 20 6 11 13 20 16 20 2 0 0 -9 -6 -20z
m-150 -30 c-6 -11 -13 -20 -16 -20 -2 0 0 9 6 20 6 11 13 20 16 20 2 0 0 -9
-6 -20z m120 -19 c-5 -11 -15 -23 -21 -27 -6 -3 -3 5 6 20 20 30 30 35 15 7z
m-157 -42 c-10 -17 -24 -36 -32 -42 -8 -7 -2 7 14 31 32 49 45 57 18 11z m97
-42 c0 -2 -12 -14 -27 -28 l-28 -24 24 28 c23 25 31 32 31 24z m-140 -21 c0
-2 -8 -10 -17 -17 -16 -13 -17 -12 -4 4 13 16 21 21 21 13z m-30 -39 c0 -2
-10 -12 -22 -23 l-23 -19 19 23 c18 21 26 27 26 19z m120 0 c0 -2 -17 -19 -37
-38 l-38 -34 34 38 c33 34 41 42 41 34z m-150 -131 c0 -3 -15 -14 -32 -26
l-33 -22 30 26 c31 27 35 29 35 22z m-120 -19 c0 -2 -10 -12 -22 -23 l-23 -19
19 23 c18 21 26 27 26 19z m50 -32 c0 -2 -10 -9 -22 -15 -22 -11 -22 -10 -4 4
21 17 26 19 26 11z m-100 -9 c0 -2 -8 -10 -17 -17 -16 -13 -17 -12 -4 4 13 16
21 21 21 13z m50 -21 c0 -6 -97 -55 -107 -55 -4 1 17 14 47 30 61 32 60 32 60
25z m-120 -30 c0 -2 -10 -9 -22 -15 -22 -11 -22 -10 -4 4 21 17 26 19 26 11z
m-75 -63 c-3 -3 -11 0 -18 7 -9 10 -8 11 6 5 10 -3 15 -9 12 -12z"/>
    <path fill="#507296" filter="url(#electricGlow) url(#electricCrackle)" d="M1605 1743 c30 -8 45 -23 46 -47 1 -18 2 -18 6 -3 6 24 -24 57 -51
56 -20 -1 -20 -2 -1 -6z"/>
    <path fill="#507296" filter="url(#electricGlow) url(#electricCrackle)" d="M1510 1673 l-65 -68 68 65 c62 60 72 70 64 70 -1 0 -32 -30 -67 -67z"/>
    <path fill="#507296" filter="url(#electricGlow) url(#electricCrackle)" d="M1631 1647 c-13 -21 -12 -21 5 -5 10 10 16 20 13 22 -3 3 -11 -5 -18
-17z"/>
    <path fill="#507296" filter="url(#electricGlow) url(#electricCrackle)" d="M1569 1563 c-13 -16 -12 -17 4 -4 9 7 17 15 17 17 0 8 -8 3 -21 -13z"/>
    <path fill="#507296" filter="url(#electricGlow) url(#electricCrackle)" d="M1255 1428 l-110 -113 113 110 c104 102 117 115 109 115 -1 0 -52
-51 -112 -112z"/>
    <path fill="#507296" filter="url(#electricGlow) url(#electricCrackle)" d="M1768 1473 c7 -3 16 -2 19 1 4 3 -2 6 -13 5 -11 0 -14 -3 -6 -6z"/>
    <path fill="#507296" filter="url(#electricGlow) url(#electricCrackle)" d="M1832 1470 c14 -4 32 -11 40 -15 7 -3 4 1 -6 9 -11 9 -29 16 -40 15
-17 -1 -16 -2 6 -9z"/>
    <path fill="#507296" filter="url(#electricGlow) url(#electricCrackle)" d="M1719 1449 l-24 -20 28 17 c15 9 27 18 27 20 0 8 -8 4 -31 -17z"/>
    <path fill="#507296" filter="url(#electricGlow) url(#electricCrackle)" d="M828 1443 c6 -2 18 -2 25 0 6 3 1 5 -13 5 -14 0 -19 -2 -12 -5z"/>
    <path fill="#507296" filter="url(#electricGlow) url(#electricCrackle)" d="M1479 1433 c-13 -16 -12 -17 4 -4 9 7 17 15 17 17 0 8 -8 3 -21 -13z"/>
    <path fill="#507296" filter="url(#electricGlow) url(#electricCrackle)" d="M771 1416 c-13 -14 -21 -31 -18 -38 4 -9 6 -8 6 4 1 9 13 26 27 37
15 12 22 21 17 21 -5 0 -20 -11 -32 -24z"/>
    <path fill="#507296" filter="url(#electricGlow) url(#electricCrackle)" d="M871 1438 c2 -2 20 -16 39 -33 l35 -30 -29 33 c-17 17 -34 32 -40 32
-5 0 -7 -1 -5 -2z"/>
    <path fill="#507296" filter="url(#electricGlow) url(#electricCrackle)" d="M1680 1399 c-6 -11 -10 -27 -8 -35 2 -8 8 1 14 20 12 40 10 46 -6 15z"/>
    <path fill="#507296" filter="url(#electricGlow) url(#electricCrackle)" d="M1918 1405 c5 -11 12 -27 15 -35 5 -13 6 -13 6 1 1 8 -6 24 -15 35
-15 19 -15 19 -6 -1z"/>
    <path fill="#507296" filter="url(#electricGlow) url(#electricCrackle)" d="M1787 1392 c-10 -2 -22 -15 -28 -29 -18 -47 36 -93 77 -65 44 30 5
107 -49 94z"/>
    <path fill="#507296" filter="url(#electricGlow) url(#electricCrackle)" d="M94 1265 c0 -49 1 -71 3 -48 2 23 2 64 0 90 -2 26 -3 8 -3 -42z"/>
    <path fill="#507296" filter="url(#electricGlow) url(#electricCrackle)" d="M1409 1333 c-13 -16 -12 -17 4 -4 9 7 17 15 17 17 0 8 -8 3 -21 -13z"/>
    <path fill="#507296" filter="url(#electricGlow) url(#electricCrackle)" d="M750 1331 c0 -6 4 -13 10 -16 6 -3 7 1 4 9 -7 18 -14 21 -14 7z"/>
    <path fill="#507296" filter="url(#electricGlow) url(#electricCrackle)" d="M1030 1298 c41 -45 50 -53 50 -45 0 2 -21 23 -47 47 l-48 45 45 -47z"/>
    <path fill="#507296" filter="url(#electricGlow) url(#electricCrackle)" d="M1671 1314 c0 -11 3 -14 6 -6 3 7 2 16 -1 19 -3 4 -6 -2 -5 -13z"/>
    <path fill="#507296" filter="url(#electricGlow) url(#electricCrackle)" d="M1931 1304 c0 -11 3 -14 6 -6 3 7 2 16 -1 19 -3 4 -6 -2 -5 -13z"/>
    <path fill="#507296" filter="url(#electricGlow) url(#electricCrackle)" d="M770 1296 c0 -2 8 -10 18 -17 15 -13 16 -12 3 4 -13 16 -21 21 -21
13z"/>
    <path fill="#507296" filter="url(#electricGlow) url(#electricCrackle)" d="M1359 1263 c-13 -16 -12 -17 4 -4 16 13 21 21 13 21 -2 0 -10 -8 -17
-17z"/>
    <path fill="#507296" filter="url(#electricGlow) url(#electricCrackle)" d="M825 1230 c10 -11 20 -20 23 -20 3 0 -3 9 -13 20 -10 11 -20 20 -23
20 -3 0 3 -9 13 -20z"/>
    <path fill="#507296" filter="url(#electricGlow) url(#electricCrackle)" d="M1555 1170 c-43 -44 -77 -81 -74 -82 2 -2 40 34 83 79 44 46 78 83
75 83 -2 0 -40 -36 -84 -80z"/>
    <path fill="#507296" filter="url(#electricGlow) url(#electricCrackle)" d="M1880 1229 c-22 -18 -22 -19 -3 -10 12 6 25 16 28 21 9 15 3 12 -25
-11z"/>
    <path fill="#507296" filter="url(#electricGlow) url(#electricCrackle)" d="M1690 1175 c-24 -25 -42 -45 -39 -45 3 0 25 20 49 45 24 25 42 45 39
45 -3 0 -25 -20 -49 -45z"/>
    <path fill="#507296" filter="url(#electricGlow) url(#electricCrackle)" d="M1788 1203 c12 -2 32 -2 45 0 12 2 2 4 -23 4 -25 0 -35 -2 -22 -4z"/>
    <path fill="#507296" filter="url(#electricGlow) url(#electricCrackle)" d="M865 1180 c10 -11 20 -20 23 -20 3 0 -3 9 -13 20 -10 11 -20 20 -23
20 -3 0 3 -9 13 -20z"/>
    <path fill="#507296" filter="url(#electricGlow) url(#electricCrackle)" d="M1289 1163 c-13 -16 -12 -17 4 -4 16 13 21 21 13 21 -2 0 -10 -8 -17
-17z"/>
    <path fill="#507296" filter="url(#electricGlow) url(#electricCrackle)" d="M905 1130 c10 -11 20 -20 23 -20 3 0 -3 9 -13 20 -10 11 -20 20 -23
20 -3 0 3 -9 13 -20z"/>
    <path fill="#507296" filter="url(#electricGlow) url(#electricCrackle)" d="M1239 1093 c-13 -16 -12 -17 4 -4 9 7 17 15 17 17 0 8 -8 3 -21 -13z"/>
    <path fill="#507296" filter="url(#electricGlow) url(#electricCrackle)" d="M1584 1078 l-19 -23 23 19 c12 11 22 21 22 23 0 8 -8 2 -26 -19z"/>
    <path fill="#507296" filter="url(#electricGlow) url(#electricCrackle)" d="M940 1086 c0 -2 8 -10 18 -17 15 -13 16 -12 3 4 -13 16 -21 21 -21
13z"/>
    <path fill="#507296" filter="url(#electricGlow) url(#electricCrackle)" d="M1838 1063 c7 -3 16 -2 19 1 4 3 -2 6 -13 5 -11 0 -14 -3 -6 -6z"/>
    <path fill="#507296" filter="url(#electricGlow) url(#electricCrackle)" d="M1562 981 c-2 -61 -6 -79 -24 -100 l-22 -26 27 26 c27 24 28 29 24
100 l-3 74 -2 -74z"/>
    <path fill="#507296" filter="url(#electricGlow) url(#electricCrackle)" d="M1915 1030 c10 -11 20 -20 23 -20 3 0 -3 9 -13 20 -10 11 -20 20 -23
20 -3 0 3 -9 13 -20z"/>
    <path fill="#507296" filter="url(#electricGlow) url(#electricCrackle)" d="M995 1020 c10 -11 20 -20 23 -20 3 0 -3 9 -13 20 -10 11 -20 20 -23
20 -3 0 3 -9 13 -20z"/>
    <path fill="#507296" filter="url(#electricGlow) url(#electricCrackle)" d="M1749 1023 c-13 -16 -12 -17 4 -4 16 13 21 21 13 21 -2 0 -10 -8 -17
-17z"/>
    <path fill="#507296" filter="url(#electricGlow) url(#electricCrackle)" d="M1472 986 c-1 -28 -10 -49 -29 -70 l-28 -31 33 31 c29 27 33 36 29
70 l-4 39 -1 -39z"/>
    <path fill="#507296" filter="url(#electricGlow) url(#electricCrackle)" d="M1725 989 c-4 -6 -5 -12 -2 -15 2 -3 7 2 10 11 7 17 1 20 -8 4z"/>
    <path fill="#507296" filter="url(#electricGlow) url(#electricCrackle)" d="M1946 987 c3 -10 9 -15 12 -12 3 3 0 11 -7 18 -10 9 -11 8 -5 -6z"/>
    <path fill="#507296" filter="url(#electricGlow) url(#electricCrackle)" d="M1042 965 c15 -16 29 -27 31 -24 3 2 -10 15 -27 28 l-31 24 27 -28z"/>
    <path fill="#507296" filter="url(#electricGlow) url(#electricCrackle)" d="M1141 960 c-13 -11 -19 -20 -14 -20 6 0 18 9 28 20 23 25 17 25 -14
0z"/>
    <path fill="#507296" filter="url(#electricGlow) url(#electricCrackle)" d="M1816 967 c-22 -16 -18 -55 7 -71 39 -24 79 44 41 71 -10 7 -21 13
-24 13 -3 0 -14 -6 -24 -13z"/>
    <path fill="#507296" filter="url(#electricGlow) url(#electricCrackle)" d="M1712 935 c0 -16 2 -22 5 -12 2 9 2 23 0 30 -3 6 -5 -1 -5 -18z"/>
    <path fill="#507296" filter="url(#electricGlow) url(#electricCrackle)" d="M1962 935 c0 -16 2 -22 5 -12 2 9 2 23 0 30 -3 6 -5 -1 -5 -18z"/>
    <path fill="#507296" filter="url(#electricGlow) url(#electricCrackle)" d="M1675 840 l-49 -55 54 52 c30 29 52 54 50 56 -3 1 -27 -22 -55 -53z"/>
    <path fill="#507296" filter="url(#electricGlow) url(#electricCrackle)" d="M1946 873 c-6 -14 -5 -15 5 -6 7 7 10 15 7 18 -3 3 -9 -2 -12 -12z"/>
    <path fill="#507296" filter="url(#electricGlow) url(#electricCrackle)" d="M1339 823 l-34 -38 38 34 c20 19 37 36 37 38 0 8 -8 0 -41 -34z"/>
    <path fill="#507296" filter="url(#electricGlow) url(#electricCrackle)" d="M1890 820 c-9 -6 -10 -10 -3 -10 6 0 15 5 18 10 8 12 4 12 -15 0z"/>
    <path fill="#507296" filter="url(#electricGlow) url(#electricCrackle)" d="M1395 748 l-70 -73 73 70 c67 64 77 75 69 75 -1 0 -34 -33 -72 -72z"/>
    <path fill="#507296" filter="url(#electricGlow) url(#electricCrackle)" d="M1768 801 c-10 -13 -10 -14 1 -5 7 7 32 9 59 6 58 -6 53 3 -5 11 -32
4 -45 1 -55 -12z"/>
    <path fill="#507296" filter="url(#electricGlow) url(#electricCrackle)" d="M1554 729 c-16 -17 -38 -35 -49 -39 -14 -6 -15 -9 -5 -9 9 -1 34 17
55 39 21 22 37 40 34 40 -3 0 -18 -14 -35 -31z"/>
    <path fill="#507296" filter="url(#electricGlow) url(#electricCrackle)" d="M1645 688 l-70 -73 73 70 c67 64 77 75 69 75 -1 0 -34 -33 -72 -72z"/>
    <path fill="#507296" filter="url(#electricGlow) url(#electricCrackle)" d="M1448 683 c7 -3 16 -2 19 1 4 3 -2 6 -13 5 -11 0 -14 -3 -6 -6z"/>
    <path fill="#507296" filter="url(#electricGlow) url(#electricCrackle)" d="M1255 618 l-40 -43 43 40 c39 36 47 45 39 45 -2 0 -21 -19 -42 -42z"/>
    <path fill="#507296" filter="url(#electricGlow) url(#electricCrackle)" d="M1365 619 c-4 -6 -5 -12 -2 -15 2 -3 7 2 10 11 7 17 1 20 -8 4z"/>
    <path fill="#507296" filter="url(#electricGlow) url(#electricCrackle)" d="M1463 599 c-40 -15 -25 -79 18 -79 25 0 42 26 35 54 -7 29 -23 36
-53 25z"/>
    <path fill="#507296" filter="url(#electricGlow) url(#electricCrackle)" d="M1352 565 c0 -16 2 -22 5 -12 2 9 2 23 0 30 -3 6 -5 -1 -5 -18z"/>
    <path fill="#507296" filter="url(#electricGlow) url(#electricCrackle)" d="M1180 559 c-22 -18 -22 -19 -3 -10 12 6 25 16 28 21 9 15 3 12 -25
-11z"/>
    <path fill="#507296" filter="url(#electricGlow) url(#electricCrackle)" d="M1590 522 c0 -6 -12 -25 -27 -44 -22 -27 -23 -29 -4 -13 27 23 45 54
37 63 -3 3 -6 0 -6 -6z"/>
    <path fill="#507296" filter="url(#electricGlow) url(#electricCrackle)" d="M1300 495 c-25 -13 -41 -24 -37 -25 11 0 87 39 87 45 0 7 0 7 -50
-20z"/>
    <path fill="#507296" filter="url(#electricGlow) url(#electricCrackle)" d="M900 490 c0 -5 5 -10 11 -10 5 0 7 5 4 10 -3 6 -8 10 -11 10 -2 0 -4
-4 -4 -10z"/>
    <path fill="#507296" filter="url(#electricGlow) url(#electricCrackle)" d="M1018 493 c7 -3 16 -2 19 1 4 3 -2 6 -13 5 -11 0 -14 -3 -6 -6z"/>
    <path fill="#507296" filter="url(#electricGlow) url(#electricCrackle)" d="M935 480 c-8 -13 5 -13 25 0 13 8 13 10 -2 10 -9 0 -20 -4 -23 -10z"/>
    <path fill="#507296" filter="url(#electricGlow) url(#electricCrackle)" d="M998 453 c7 -3 16 -2 19 1 4 3 -2 6 -13 5 -11 0 -14 -3 -6 -6z"/>
    <path fill="#507296" filter="url(#electricGlow) url(#electricCrackle)" d="M1188 453 c7 -3 16 -2 19 1 4 3 -2 6 -13 5 -11 0 -14 -3 -6 -6z"/>
    <path fill="#507296" filter="url(#electricGlow) url(#electricCrackle)" d="M1385 434 c-18 -16 -22 -22 -9 -15 18 9 53 42 43 41 -2 -1 -17 -12
-34 -26z"/>
    <path fill="#507296" filter="url(#electricGlow) url(#electricCrackle)" d="M1068 443 c17 -2 47 -2 65 0 17 2 3 4 -33 4 -36 0 -50 -2 -32 -4z"/>
    <path fill="#507296" filter="url(#electricGlow) url(#electricCrackle)" d="M1463 433 c9 -2 25 -2 35 0 9 3 1 5 -18 5 -19 0 -27 -2 -17 -5z"/>
    <path fill="#507296" filter="url(#electricGlow) url(#electricCrackle)" d="M1300 390 c-8 -5 -10 -10 -5 -10 6 0 17 5 25 10 8 5 11 10 5 10 -5 0
-17 -5 -25 -10z"/>
    <path fill="#507296" filter="url(#electricGlow) url(#electricCrackle)" d="M1245 370 c-13 -6 -15 -9 -5 -9 8 0 22 4 30 9 18 12 2 12 -25 0z"/>
    <path fill="#507296" filter="url(#electricGlow) url(#electricCrackle)" d="M1799 343 l-34 -38 38 34 c34 33 42 41 34 41 -2 0 -19 -17 -38 -37z"/>
    <path fill="#507296" filter="url(#electricGlow) url(#electricCrackle)" d="M915 350 c-3 -5 -2 -10 4 -10 5 0 13 5 16 10 3 6 2 10 -4 10 -5 0
-13 -4 -16 -10z"/>
    <path fill="#507296" filter="url(#electricGlow) url(#electricCrackle)" d="M1198 353 c7 -3 16 -2 19 1 4 3 -2 6 -13 5 -11 0 -14 -3 -6 -6z"/>
    <path fill="#507296" filter="url(#electricGlow) url(#electricCrackle)" d="M950 340 c-11 -7 -5 -8 20 -4 43 8 51 14 19 14 -13 0 -31 -5 -39 -10z"/>
    <path fill="#507296" filter="url(#electricGlow) url(#electricCrackle)" d="M1123 343 c9 -2 25 -2 35 0 9 3 1 5 -18 5 -19 0 -27 -2 -17 -5z"/>
    <path fill="#afc3d6" filter="url(#electricGlow) url(#electricCrackle)" d="M1155 2433 c-204 -17 -405 -87 -559 -193 -99 -68 -279 -256 -339
-352 -64 -101 -112 -223 -144 -361 -23 -97 -27 -134 -26 -272 0 -169 9 -231
57 -378 55 -166 132 -291 261 -426 110 -115 183 -167 317 -230 157 -74 247
-92 469 -95 82 -1 151 -5 155 -9 4 -3 2 -13 -4 -20 -15 -18 -5 -27 27 -26 25
1 25 2 -4 8 -29 7 -27 8 30 25 59 18 59 19 30 28 -16 5 -127 10 -245 12 -247
3 -305 14 -469 92 -125 59 -199 114 -306 226 -379 398 -418 1051 -87 1493 159
214 382 366 628 431 79 21 131 27 254 31 225 8 367 -20 545 -107 44 -22 71
-32 60 -23 -41 32 -185 93 -266 113 -75 17 -289 42 -329 38 -8 -1 -33 -3 -55
-5z"/>
    <path fill="#afc3d6" filter="url(#electricGlow) url(#electricCrackle)" d="M1940 2185 c13 -14 26 -25 28 -25 3 0 -5 11 -18 25 -13 14 -26 25
-28 25 -3 0 5 -11 18 -25z"/>
    <path fill="#afc3d6" filter="url(#electricGlow) url(#electricCrackle)" d="M2020 2118 c41 -45 50 -53 50 -45 0 2 -21 23 -47 47 l-48 45 45 -47z"/>
    <path fill="#afc3d6" filter="url(#electricGlow) url(#electricCrackle)" d="M2091 2035 c69 -80 114 -167 65 -126 -18 15 -108 20 -112 6 -2 -5 30
-55 71 -110 87 -116 147 -232 177 -342 19 -67 22 -105 22 -263 0 -168 -3 -194
-27 -282 -100 -371 -367 -664 -722 -789 -44 -16 -72 -29 -63 -29 34 0 180 60
259 107 276 164 462 414 540 724 14 57 22 131 26 229 9 250 -32 400 -164 598
-35 52 -62 101 -59 107 2 7 23 15 45 19 25 4 41 12 41 20 0 17 -79 125 -106
146 -11 8 -8 2 7 -15z"/>
    <path fill="#afc3d6" filter="url(#electricGlow) url(#electricCrackle)" d="M1458 93 c7 -3 16 -2 19 1 4 3 -2 6 -13 5 -11 0 -14 -3 -6 -6z"/>
    <path fill="#afc3d6" filter="url(#electricGlow) url(#electricCrackle)" d="M1408 83 c7 -3 16 -2 19 1 4 3 -2 6 -13 5 -11 0 -14 -3 -6 -6z"/>
-1245z m1390 1177 c0 -5 16 -6 35 -4 22 3 35 0 35 -7 0 -7 4 -10 9 -6 14 8 92
-6 86 -15 -3 -5 5 -6 17 -2 16 4 19 2 13 -8 -5 -8 -4 -11 3 -6 14 8 64 -3 57
-14 -3 -4 1 -8 8 -7 32 1 48 -4 42 -13 -3 -5 0 -7 7 -5 17 7 165 -85 256 -157
60 -48 197 -201 222 -249 14 -26 9 -31 -43 -45 -43 -11 -44 -14 -31 -48 6 -15
4 -17 -7 -11 -12 8 -12 6 0 -8 16 -20 26 -23 15 -4 -5 8 -2 7 9 -2 10 -7 16
-21 15 -30 -2 -8 4 -16 12 -16 8 0 15 -8 15 -17 0 -9 4 -20 9 -25 5 -5 6 -2 2
7 -4 8 0 6 8 -5 9 -11 14 -25 12 -32 -3 -7 0 -12 7 -10 7 1 11 -6 11 -15 -1
-10 3 -15 9 -11 6 4 8 0 4 -11 -4 -9 -3 -15 2 -12 12 8 35 -50 25 -65 -4 -7
-3 -10 4 -5 13 8 26 -29 16 -45 -5 -8 -3 -9 6 -4 10 6 12 3 8 -13 -4 -14 -2
-20 4 -16 7 5 9 -2 4 -20 -5 -20 -4 -26 5 -20 8 5 10 -2 7 -24 -2 -18 0 -28 5
-25 5 3 8 -11 5 -35 -2 -22 0 -38 4 -36 5 3 8 -54 8 -126 0 -79 -4 -129 -9
-125 -6 3 -8 -8 -5 -27 9 -59 -71 -328 -98 -328 -5 0 -7 -4 -4 -9 9 -13 -4
-42 -15 -35 -5 3 -8 2 -7 -3 4 -13 -24 -73 -31 -68 -4 2 -8 -1 -8 -8 0 -21
-55 -97 -66 -90 -5 3 -7 1 -4 -4 9 -14 -32 -65 -45 -57 -6 4 -8 3 -5 -3 12
-19 -235 -234 -251 -218 -3 2 -10 -2 -16 -9 -18 -23 -114 -68 -127 -60 -8 4
-9 3 -5 -4 7 -11 -7 -16 -41 -15 -7 1 -11 -3 -8 -7 4 -7 -24 -15 -184 -51 -31
-7 -47 -7 -55 1 -8 8 -7 13 4 20 8 5 11 13 6 17 -7 7 -54 10 -266 12 -60 1
-81 4 -70 11 10 7 2 8 -29 4 -32 -5 -42 -4 -37 4 5 8 -2 10 -25 5 -21 -4 -30
-2 -26 4 4 6 -4 8 -20 5 -18 -3 -24 -1 -19 6 4 8 2 10 -8 6 -21 -8 -162 55
-262 118 -114 71 -269 231 -341 353 -89 149 -153 342 -156 466 -1 37 -6 64
-11 61 -15 -9 2 233 24 338 11 52 24 96 29 98 5 2 6 12 3 24 -3 14 -1 19 6 14
8 -5 10 -2 6 8 -3 9 -1 16 5 16 6 0 8 7 5 15 -4 8 -1 15 5 15 6 0 8 7 4 17 -4
11 -3 14 5 9 8 -4 10 -2 6 7 -3 8 1 21 9 28 7 8 12 20 9 27 -2 6 3 15 12 18 9
3 13 10 10 15 -3 5 -1 9 4 9 5 0 9 7 9 15 0 22 66 115 77 108 5 -3 6 -1 2 5
-9 16 169 199 256 263 39 30 72 47 79 43 7 -4 9 -3 6 3 -9 14 110 76 129 69 8
-3 12 -2 9 3 -7 12 31 24 46 15 8 -5 9 -3 4 6 -6 10 -3 12 13 8 14 -4 20 -2
15 5 -4 6 2 8 15 5 14 -4 20 -2 16 4 -5 7 2 9 19 6 16 -3 24 -1 20 5 -4 6 4 8
20 5 16 -3 24 -1 20 5 -3 6 6 8 25 5 18 -2 28 0 25 5 -3 5 11 8 35 5 22 -2 38
0 36 3 -2 4 61 7 141 8 80 0 145 -3 145 -7z"/>
80 -248 289 -415 521 -415 133 0 236 45 365 160 l88 79 7 80 7 81 97 92 96 92
-3 48 c-11 146 168 204 249 82 40 -61 13 -166 -51 -199 -32 -17 -87 -19 -109
-6 -11 7 -38 -12 -103 -71 l-88 -81 0 -75 0 -74 -112 -107 c-217 -206 -262
-244 -326 -273 -34 -16 -84 -31 -110 -35 -75 -9 -81 -19 -22 -33 87 -21 205
-8 289 30 66 31 70 34 64 60 -12 63 58 140 128 140 29 0 49 14 134 94 l100 93
0 49 c0 62 29 106 86 128 54 22 99 8 137 -42 71 -94 -4 -225 -121 -209 -39 5
-42 3 -131 -83 l-92 -89 4 -61 c4 -57 3 -61 -30 -94 -41 -41 -80 -53 -122 -38
-24 9 -33 9 -46 -3 -28 -25 -143 -73 -207 -85 -35 -7 -106 -11 -165 -8 l-103
4 60 -18 c206 -63 420 -46 606 48 81 40 209 141 246 194 30 43 51 54 32 18
-116 -220 -345 -387 -594 -433 l-70 -13 90 -1 c50 -1 106 -5 125 -11 31 -9 44
-6 125 35 256 127 481 410 560 705 26 99 32 316 11 420 -55 271 -222 489 -461
600 -104 49 -201 70 -323 70 -203 0 -360 -67 -507 -214 -140 -141 -196 -262
-219 -480 l-12 -111 -12 53 c-16 72 -15 232 3 314 30 146 94 264 205 381 114
120 236 196 387 239 109 31 311 31 428 -1 153 -41 290 -119 418 -239 39 -37
60 -53 48 -35 -13 17 -20 36 -17 42 9 14 71 14 99 0 41 -21 -107 120 -183 175
-136 98 -267 155 -419 181 -88 16 -235 18 -313 5z m407 -540 c24 -27 15 -55
-45 -137 -27 -37 -131 -185 -231 -328 -251 -358 -223 -325 -269 -325 -39 0
-41 2 -195 192 -136 169 -155 197 -155 228 0 49 37 85 89 85 34 0 49 -10 140
-95 l102 -94 142 140 c299 294 364 354 384 354 11 0 28 -9 38 -20z"/>
  </g>
</svg>