<svg xmlns="http://www.w3.org/2000/svg" viewBox="0 0 512 512" fill="none">
  <defs>
    <linearGradient id="shield-gradient" x1="0%" y1="0%" x2="100%" y2="100%">
      <stop offset="0%" style="stop-color:#4F46E5;stop-opacity:1" />
      <stop offset="100%" style="stop-color:#6366F1;stop-opacity:1" />
    </linearGradient>
  </defs>
  <path d="M256 48c-42.9 0-78.7 8.6-106.5 17.3c-16.6 5.2-30.4 10.7-40.5 15.3c-5.1 2.3-9.3 4.4-12.6 6.2c-1.6 0.9-3 1.7-4.1 2.4c-0.6 0.4-1.1 0.7-1.5 1c-0.3 0.2-0.6 0.4-0.8 0.6v0.1c-6.3 4.8-10 12.3-10 20.1v113.1c0 62.8 21.3 122.5 60.1 168.4C179 438.4 235.1 464 256 464s77-25.6 115.9-71.5c38.8-45.9 60.1-105.6 60.1-168.4V111c0-7.8-3.7-15.3-10-20.1v-0.1c-0.2-0.2-0.5-0.4-0.8-0.6c-0.4-0.3-0.9-0.6-1.5-1c-1.1-0.7-2.5-1.5-4.1-2.4c-3.3-1.8-7.5-3.9-12.6-6.2c-10.1-4.6-23.9-10.1-40.5-15.3C334.7 56.6 298.9 48 256 48z" fill="url(#shield-gradient)"/>
  <path d="M256 96c35.7 0 67.8 7.1 91.8 14.8c14.2 4.5 25.1 8.9 32.2 12.2v101.1c0 49.2-16.6 96.1-46.9 131.8C302.9 391.6 271.1 416 256 416s-46.9-24.4-77.1-60.1c-30.3-35.7-46.9-82.6-46.9-131.8V123c7.1-3.3 18-7.7 32.2-12.2C188.2 103.1 220.3 96 256 96z" fill="white" opacity="0.9"/>
  <path d="M352 180l-96 96-48-48" stroke="#4F46E5" stroke-width="24" stroke-linecap="round" stroke-linejoin="round" fill="none"/>
</svg>